<?xml version="1.0" encoding="UTF-8"?>
<svg width="1440px" height="1024px" viewBox="0 0 1440 1024" version="1.1" xmlns="http://www.w3.org/2000/svg" xmlns:xlink="http://www.w3.org/1999/xlink">
    <!-- Generator: Sketch 51 (57462) - http://www.bohemiancoding.com/sketch -->
    <title>Desktop HD</title>
    <desc>Created with Sketch.</desc>
    <defs></defs>
    <g id="Desktop-HD" stroke="none" stroke-width="1" fill="none" fill-rule="evenodd">
        <g id="zig4" transform="translate(-41.000000, -1336.000000)">
            <g id="zig3" transform="translate(767.229535, 781.876827) scale(1, -1) translate(-767.229535, -781.876827) translate(2.459069, 735.344342)" fill="#FF8A9D">
                <path d="M765,93 L612.980769,25.7771739 L458.509615,93 L306,25.7771739 L153,93 L0,26.2826087 L0,0 L153,66.9701087 L306,0 L458.509615,66.9701087 L612,0 L765,66.4646739 L918,0 L1071.49038,66.9701087 L1224,0 L1377,66.9701087 L1530,0 L1530,26.2826087 L1377,93 L1224,25.7771739 L1071.49038,93 L917.019231,25.7771739 L765,93 Z" id="Combined-Shape"></path>
            </g>
            <g id="zig1" transform="translate(766.892438, 70.781808) scale(1, -1) translate(-766.892438, -70.781808) translate(2.459069, 24.249323)" fill="#FFFFFF">
                <path d="M764.5,93 L612.580128,25.7771739 L458.209936,93 L305.8,25.7771739 L152.9,93 L0,26.2826087 L0,0 L152.9,66.9701087 L305.8,0 L458.209936,66.9701087 L611.6,0 L764.5,66.4646739 L917.4,0 L1070.79006,66.9701087 L1223.2,0 L1376.1,66.9701087 L1529,0 L1529,26.2826087 L1376.1,93 L1223.2,25.7771739 L1070.79006,93 L916.419872,25.7771739 L764.5,93 Z" id="Combined-Shape"></path>
            </g>
            <g id="zig2" transform="translate(767.229535, 96.341906) scale(1, -1) translate(-767.229535, -96.341906) translate(2.459069, 49.809421)" fill="#E8FA00">
                <path d="M765,93 L612.980769,25.7771739 L458.509615,93 L306,25.7771739 L153,93 L0,26.2826087 L0,0 L153,66.9701087 L306,0 L458.509615,66.9701087 L612,0 L765,66.4646739 L918,0 L1071.49038,66.9701087 L1224,0 L1377,66.9701087 L1530,0 L1530,26.2826087 L1377,93 L1224,25.7771739 L1071.49038,93 L917.019231,25.7771739 L765,93 Z" id="Combined-Shape"></path>
            </g>
            <g id="zig1" transform="translate(766.892438, 143.529778) scale(1, -1) translate(-766.892438, -143.529778) translate(2.459069, 96.997293)" fill="#FFFFFF">
                <path d="M764.5,93 L612.580128,25.7771739 L458.209936,93 L305.8,25.7771739 L152.9,93 L0,26.2826087 L0,0 L152.9,66.9701087 L305.8,0 L458.209936,66.9701087 L611.6,0 L764.5,66.4646739 L917.4,0 L1070.79006,66.9701087 L1223.2,0 L1376.1,66.9701087 L1529,0 L1529,26.2826087 L1376.1,93 L1223.2,25.7771739 L1070.79006,93 L916.419872,25.7771739 L764.5,93 Z" id="Combined-Shape"></path>
            </g>
            <g id="zig2" transform="translate(767.229535, 168.434488) scale(1, -1) translate(-767.229535, -168.434488) translate(2.459069, 121.902003)" fill="#E8FA00">
                <path d="M765,93 L612.980769,25.7771739 L458.509615,93 L306,25.7771739 L153,93 L0,26.2826087 L0,0 L153,66.9701087 L306,0 L458.509615,66.9701087 L612,0 L765,66.4646739 L918,0 L1071.49038,66.9701087 L1224,0 L1377,66.9701087 L1530,0 L1530,26.2826087 L1377,93 L1224,25.7771739 L1071.49038,93 L917.019231,25.7771739 L765,93 Z" id="Combined-Shape"></path>
            </g>
            <g id="zig3" transform="translate(767.229535, 117.969681) scale(1, -1) translate(-767.229535, -117.969681) translate(2.459069, 71.437195)" fill="#FF8A9D">
                <path d="M765,93 L612.980769,25.7771739 L458.509615,93 L306,25.7771739 L153,93 L0,26.2826087 L0,0 L153,66.9701087 L306,0 L458.509615,66.9701087 L612,0 L765,66.4646739 L918,0 L1071.49038,66.9701087 L1224,0 L1377,66.9701087 L1530,0 L1530,26.2826087 L1377,93 L1224,25.7771739 L1071.49038,93 L917.019231,25.7771739 L765,93 Z" id="Combined-Shape"></path>
            </g>
            <g id="zig1" transform="translate(767.043327, 219.495609) scale(1, -1) translate(-767.043327, -219.495609) translate(2.459069, 173.022198)" fill="#FFFFFF">
                <path d="M764.5,93 L612.580128,25.7771739 L458.209936,93 L305.8,25.7771739 L152.9,93 L0,26.2826087 L0,0 L152.9,66.9701087 L305.8,0 L458.209936,66.9701087 L611.6,0 L764.5,66.4646739 L917.4,0 L1070.79006,66.9701087 L1223.2,0 L1376.1,66.9701087 L1529,0 L1529,26.2826087 L1376.1,93 L1223.2,25.7771739 L1070.79006,93 L916.419872,25.7771739 L764.5,93 Z" id="Combined-Shape"></path>
            </g>
            <g id="zig2" transform="translate(767.229535, 243.804006) scale(1, -1) translate(-767.229535, -243.804006) translate(2.459069, 197.271521)" fill="#E8FA00">
                <path d="M765,93 L612.980769,25.7771739 L458.509615,93 L306,25.7771739 L153,93 L0,26.2826087 L0,0 L153,66.9701087 L306,0 L458.509615,66.9701087 L612,0 L765,66.4646739 L918,0 L1071.49038,66.9701087 L1224,0 L1377,66.9701087 L1530,0 L1530,26.2826087 L1377,93 L1224,25.7771739 L1071.49038,93 L917.019231,25.7771739 L765,93 Z" id="Combined-Shape"></path>
            </g>
            <g id="zig3" transform="translate(766.892438, 193.994586) scale(1, -1) translate(-766.892438, -193.994586) translate(2.459069, 147.462101)" fill="#FF8A9D">
                <path d="M764.5,93 L612.580128,25.7771739 L458.209936,93 L305.8,25.7771739 L152.9,93 L0,26.2826087 L0,0 L152.9,66.9701087 L305.8,0 L458.209936,66.9701087 L611.6,0 L764.5,66.4646739 L917.4,0 L1070.79006,66.9701087 L1223.2,0 L1376.1,66.9701087 L1529,0 L1529,26.2826087 L1376.1,93 L1223.2,25.7771739 L1070.79006,93 L916.419872,25.7771739 L764.5,93 Z" id="Combined-Shape"></path>
            </g>
            <g id="zig1" transform="translate(766.892438, 290.991879) scale(1, -1) translate(-766.892438, -290.991879) translate(2.459069, 244.459394)" fill="#FFFFFF">
                <path d="M764.5,93 L612.580128,25.7771739 L458.209936,93 L305.8,25.7771739 L152.9,93 L0,26.2826087 L0,0 L152.9,66.9701087 L305.8,0 L458.209936,66.9701087 L611.6,0 L764.5,66.4646739 L917.4,0 L1070.79006,66.9701087 L1223.2,0 L1376.1,66.9701087 L1529,0 L1529,26.2826087 L1376.1,93 L1223.2,25.7771739 L1070.79006,93 L916.419872,25.7771739 L764.5,93 Z" id="Combined-Shape"></path>
            </g>
            <g id="zig2" transform="translate(767.229535, 315.896589) scale(1, -1) translate(-767.229535, -315.896589) translate(2.459069, 269.364104)" fill="#E8FA00">
                <path d="M765,93 L612.980769,25.7771739 L458.509615,93 L306,25.7771739 L153,93 L0,26.2826087 L0,0 L153,66.9701087 L306,0 L458.509615,66.9701087 L612,0 L765,66.4646739 L918,0 L1071.49038,66.9701087 L1224,0 L1377,66.9701087 L1530,0 L1530,26.2826087 L1377,93 L1224,25.7771739 L1071.49038,93 L917.019231,25.7771739 L765,93 Z" id="Combined-Shape"></path>
            </g>
            <g id="zig3" transform="translate(767.229535, 264.776394) scale(1, -1) translate(-767.229535, -264.776394) translate(2.459069, 218.243909)" fill="#FF8A9D">
                <path d="M765,93 L612.980769,25.7771739 L458.509615,93 L306,25.7771739 L153,93 L0,26.2826087 L0,0 L153,66.9701087 L306,0 L458.509615,66.9701087 L612,0 L765,66.4646739 L918,0 L1071.49038,66.9701087 L1224,0 L1377,66.9701087 L1530,0 L1530,26.2826087 L1377,93 L1224,25.7771739 L1071.49038,93 L917.019231,25.7771739 L765,93 Z" id="Combined-Shape"></path>
            </g>
            <g id="zig1" transform="translate(767.229535, 365.706010) scale(1, -1) translate(-767.229535, -365.706010) translate(2.459069, 319.173525)" fill="#FFFFFF">
                <path d="M765,93 L612.980769,25.7771739 L458.509615,93 L306,25.7771739 L153,93 L0,26.2826087 L0,0 L153,66.9701087 L306,0 L458.509615,66.9701087 L612,0 L765,66.4646739 L918,0 L1071.49038,66.9701087 L1224,0 L1377,66.9701087 L1530,0 L1530,26.2826087 L1377,93 L1224,25.7771739 L1071.49038,93 L917.019231,25.7771739 L765,93 Z" id="Combined-Shape"></path>
            </g>
            <g id="zig2" transform="translate(767.229535, 390.610720) scale(1, -1) translate(-767.229535, -390.610720) translate(2.459069, 344.078235)" fill="#E8FA00">
                <path d="M765,93 L612.980769,25.7771739 L458.509615,93 L306,25.7771739 L153,93 L0,26.2826087 L0,0 L153,66.9701087 L306,0 L458.509615,66.9701087 L612,0 L765,66.4646739 L918,0 L1071.49038,66.9701087 L1224,0 L1377,66.9701087 L1530,0 L1530,26.2826087 L1377,93 L1224,25.7771739 L1071.49038,93 L917.019231,25.7771739 L765,93 Z" id="Combined-Shape"></path>
            </g>
            <g id="zig3" transform="translate(767.043327, 340.742225) scale(1, -1) translate(-767.043327, -340.742225) translate(2.459069, 294.268814)" fill="#FF8A9D">
                <path d="M764.5,93 L612.580128,25.7771739 L458.209936,93 L305.8,25.7771739 L152.9,93 L0,26.2826087 L0,0 L152.9,66.9701087 L305.8,0 L458.209936,66.9701087 L611.6,0 L764.5,66.4646739 L917.4,0 L1070.79006,66.9701087 L1223.2,0 L1376.1,66.9701087 L1529,0 L1529,26.2826087 L1376.1,93 L1223.2,25.7771739 L1070.79006,93 L916.419872,25.7771739 L764.5,93 Z" id="Combined-Shape"></path>
            </g>
            <g id="zig1" transform="translate(765.813792, 437.708320) scale(1, -1) translate(-765.813792, -437.708320) translate(1.229535, 391.266107)" fill="#FFFFFF">
                <path d="M764.5,93 L612.580128,25.7771739 L458.209936,93 L305.8,25.7771739 L152.9,93 L0,26.2826087 L0,0 L152.9,66.9701087 L305.8,0 L458.209936,66.9701087 L611.6,0 L764.5,66.4646739 L917.4,0 L1070.79006,66.9701087 L1223.2,0 L1376.1,66.9701087 L1529,0 L1529,26.2826087 L1376.1,93 L1223.2,25.7771739 L1070.79006,93 L916.419872,25.7771739 L764.5,93 Z" id="Combined-Shape"></path>
            </g>
            <g id="zig2" transform="translate(767.229535, 462.703303) scale(1, -1) translate(-767.229535, -462.703303) translate(2.459069, 416.170818)" fill="#E8FA00">
                <path d="M765,93 L612.980769,25.7771739 L458.509615,93 L306,25.7771739 L153,93 L0,26.2826087 L0,0 L153,66.9701087 L306,0 L458.509615,66.9701087 L612,0 L765,66.4646739 L918,0 L1071.49038,66.9701087 L1224,0 L1377,66.9701087 L1530,0 L1530,26.2826087 L1377,93 L1224,25.7771739 L1071.49038,93 L917.019231,25.7771739 L765,93 Z" id="Combined-Shape"></path>
            </g>
            <g id="zig3" transform="translate(767.229535, 412.893882) scale(1, -1) translate(-767.229535, -412.893882) translate(2.459069, 366.361397)" fill="#FF8A9D">
                <path d="M765,93 L612.980769,25.7771739 L458.509615,93 L306,25.7771739 L153,93 L0,26.2826087 L0,0 L153,66.9701087 L306,0 L458.509615,66.9701087 L612,0 L765,66.4646739 L918,0 L1071.49038,66.9701087 L1224,0 L1377,66.9701087 L1530,0 L1530,26.2826087 L1377,93 L1224,25.7771739 L1071.49038,93 L917.019231,25.7771739 L765,93 Z" id="Combined-Shape"></path>
            </g>
            <g id="zig1" transform="translate(767.229535, 513.823498) scale(1, -1) translate(-767.229535, -513.823498) translate(2.459069, 467.291012)" fill="#FFFFFF">
                <path d="M765,93 L612.980769,25.7771739 L458.509615,93 L306,25.7771739 L153,93 L0,26.2826087 L0,0 L153,66.9701087 L306,0 L458.509615,66.9701087 L612,0 L765,66.4646739 L918,0 L1071.49038,66.9701087 L1224,0 L1377,66.9701087 L1530,0 L1530,26.2826087 L1377,93 L1224,25.7771739 L1071.49038,93 L917.019231,25.7771739 L765,93 Z" id="Combined-Shape"></path>
            </g>
            <g id="zig2" transform="translate(767.043327, 538.669133) scale(1, -1) translate(-767.043327, -538.669133) translate(2.459069, 492.195723)" fill="#E8FA00">
                <path d="M764.5,93 L612.580128,25.7771739 L458.209936,93 L305.8,25.7771739 L152.9,93 L0,26.2826087 L0,0 L152.9,66.9701087 L305.8,0 L458.209936,66.9701087 L611.6,0 L764.5,66.4646739 L917.4,0 L1070.79006,66.9701087 L1223.2,0 L1376.1,66.9701087 L1529,0 L1529,26.2826087 L1376.1,93 L1223.2,25.7771739 L1070.79006,93 L916.419872,25.7771739 L764.5,93 Z" id="Combined-Shape"></path>
            </g>
            <g id="zig3" transform="translate(767.043327, 488.204326) scale(1, -1) translate(-767.043327, -488.204326) translate(2.459069, 441.730915)" fill="#FF8A9D">
                <path d="M764.5,93 L612.580128,25.7771739 L458.209936,93 L305.8,25.7771739 L152.9,93 L0,26.2826087 L0,0 L152.9,66.9701087 L305.8,0 L458.209936,66.9701087 L611.6,0 L764.5,66.4646739 L917.4,0 L1070.79006,66.9701087 L1223.2,0 L1376.1,66.9701087 L1529,0 L1529,26.2826087 L1376.1,93 L1223.2,25.7771739 L1070.79006,93 L916.419872,25.7771739 L764.5,93 Z" id="Combined-Shape"></path>
            </g>
            <g id="zig1" transform="translate(765.813792, 585.170421) scale(1, -1) translate(-765.813792, -585.170421) translate(1.229535, 538.728208)" fill="#FFFFFF">
                <path d="M764.5,93 L612.580128,25.7771739 L458.209936,93 L305.8,25.7771739 L152.9,93 L0,26.2826087 L0,0 L152.9,66.9701087 L305.8,0 L458.209936,66.9701087 L611.6,0 L764.5,66.4646739 L917.4,0 L1070.79006,66.9701087 L1223.2,0 L1376.1,66.9701087 L1529,0 L1529,26.2826087 L1376.1,93 L1223.2,25.7771739 L1070.79006,93 L916.419872,25.7771739 L764.5,93 Z" id="Combined-Shape"></path>
            </g>
            <g id="zig2" transform="translate(766.892438, 610.165403) scale(1, -1) translate(-766.892438, -610.165403) translate(2.459069, 563.632918)" fill="#E8FA00">
                <path d="M764.5,93 L612.580128,25.7771739 L458.209936,93 L305.8,25.7771739 L152.9,93 L0,26.2826087 L0,0 L152.9,66.9701087 L305.8,0 L458.209936,66.9701087 L611.6,0 L764.5,66.4646739 L917.4,0 L1070.79006,66.9701087 L1223.2,0 L1376.1,66.9701087 L1529,0 L1529,26.2826087 L1376.1,93 L1223.2,25.7771739 L1070.79006,93 L916.419872,25.7771739 L764.5,93 Z" id="Combined-Shape"></path>
            </g>
            <g id="zig3" transform="translate(766.892438, 559.700596) scale(1, -1) translate(-766.892438, -559.700596) translate(2.459069, 513.168110)" fill="#FF8A9D">
                <path d="M764.5,93 L612.580128,25.7771739 L458.209936,93 L305.8,25.7771739 L152.9,93 L0,26.2826087 L0,0 L152.9,66.9701087 L305.8,0 L458.209936,66.9701087 L611.6,0 L764.5,66.4646739 L917.4,0 L1070.79006,66.9701087 L1223.2,0 L1376.1,66.9701087 L1529,0 L1529,26.2826087 L1376.1,93 L1223.2,25.7771739 L1070.79006,93 L916.419872,25.7771739 L764.5,93 Z" id="Combined-Shape"></path>
            </g>
            <g id="zig1" transform="translate(766.892438, 660.630211) scale(1, -1) translate(-766.892438, -660.630211) translate(2.459069, 614.097726)" fill="#FFFFFF">
                <path d="M764.5,93 L612.580128,25.7771739 L458.209936,93 L305.8,25.7771739 L152.9,93 L0,26.2826087 L0,0 L152.9,66.9701087 L305.8,0 L458.209936,66.9701087 L611.6,0 L764.5,66.4646739 L917.4,0 L1070.79006,66.9701087 L1223.2,0 L1376.1,66.9701087 L1529,0 L1529,26.2826087 L1376.1,93 L1223.2,25.7771739 L1070.79006,93 L916.419872,25.7771739 L764.5,93 Z" id="Combined-Shape"></path>
            </g>
            <g id="zig2" transform="translate(767.229535, 685.534921) scale(1, -1) translate(-767.229535, -685.534921) translate(2.459069, 639.002436)" fill="#E8FA00">
                <path d="M765,93 L612.980769,25.7771739 L458.509615,93 L306,25.7771739 L153,93 L0,26.2826087 L0,0 L153,66.9701087 L306,0 L458.509615,66.9701087 L612,0 L765,66.4646739 L918,0 L1071.49038,66.9701087 L1224,0 L1377,66.9701087 L1530,0 L1530,26.2826087 L1377,93 L1224,25.7771739 L1071.49038,93 L917.019231,25.7771739 L765,93 Z" id="Combined-Shape"></path>
            </g>
            <g id="zig3" transform="translate(767.229535, 635.070114) scale(1, -1) translate(-767.229535, -635.070114) translate(2.459069, 588.537629)" fill="#FF8A9D">
                <path d="M765,93 L612.980769,25.7771739 L458.509615,93 L306,25.7771739 L153,93 L0,26.2826087 L0,0 L153,66.9701087 L306,0 L458.509615,66.9701087 L612,0 L765,66.4646739 L918,0 L1071.49038,66.9701087 L1224,0 L1377,66.9701087 L1530,0 L1530,26.2826087 L1377,93 L1224,25.7771739 L1071.49038,93 L917.019231,25.7771739 L765,93 Z" id="Combined-Shape"></path>
            </g>
            <g id="zig1" transform="translate(767.229535, 732.067407) scale(1, -1) translate(-767.229535, -732.067407) translate(2.459069, 685.534921)" fill="#FFFFFF">
                <path d="M765,93 L612.980769,25.7771739 L458.509615,93 L306,25.7771739 L153,93 L0,26.2826087 L0,0 L153,66.9701087 L306,0 L458.509615,66.9701087 L612,0 L765,66.4646739 L918,0 L1071.49038,66.9701087 L1224,0 L1377,66.9701087 L1530,0 L1530,26.2826087 L1377,93 L1224,25.7771739 L1071.49038,93 L917.019231,25.7771739 L765,93 Z" id="Combined-Shape"></path>
            </g>
            <g id="zig2" transform="translate(767.229535, 757.627504) scale(1, -1) translate(-767.229535, -757.627504) translate(2.459069, 711.095019)" fill="#E8FA00">
                <path d="M765,93 L612.980769,25.7771739 L458.509615,93 L306,25.7771739 L153,93 L0,26.2826087 L0,0 L153,66.9701087 L306,0 L458.509615,66.9701087 L612,0 L765,66.4646739 L918,0 L1071.49038,66.9701087 L1224,0 L1377,66.9701087 L1530,0 L1530,26.2826087 L1377,93 L1224,25.7771739 L1071.49038,93 L917.019231,25.7771739 L765,93 Z" id="Combined-Shape"></path>
            </g>
            <g id="zig3" transform="translate(765.813792, 707.072424) scale(1, -1) translate(-765.813792, -707.072424) translate(1.229535, 660.630211)" fill="#FF8A9D">
                <path d="M764.5,93 L612.580128,25.7771739 L458.209936,93 L305.8,25.7771739 L152.9,93 L0,26.2826087 L0,0 L152.9,66.9701087 L305.8,0 L458.209936,66.9701087 L611.6,0 L764.5,66.4646739 L917.4,0 L1070.79006,66.9701087 L1223.2,0 L1376.1,66.9701087 L1529,0 L1529,26.2826087 L1376.1,93 L1223.2,25.7771739 L1070.79006,93 L916.419872,25.7771739 L764.5,93 Z" id="Combined-Shape"></path>
            </g>
            <g id="zig1" transform="translate(766.892438, 70.781808) scale(1, -1) translate(-766.892438, -70.781808) translate(2.459069, 24.249323)" fill="#FFFFFF">
                <path d="M764.5,93 L612.580128,25.7771739 L458.209936,93 L305.8,25.7771739 L152.9,93 L0,26.2826087 L0,0 L152.9,66.9701087 L305.8,0 L458.209936,66.9701087 L611.6,0 L764.5,66.4646739 L917.4,0 L1070.79006,66.9701087 L1223.2,0 L1376.1,66.9701087 L1529,0 L1529,26.2826087 L1376.1,93 L1223.2,25.7771739 L1070.79006,93 L916.419872,25.7771739 L764.5,93 Z" id="Combined-Shape"></path>
            </g>
            <g id="zig2" transform="translate(767.229535, 96.341906) scale(1, -1) translate(-767.229535, -96.341906) translate(2.459069, 49.809421)" fill="#E8FA00">
                <path d="M765,93 L612.980769,25.7771739 L458.509615,93 L306,25.7771739 L153,93 L0,26.2826087 L0,0 L153,66.9701087 L306,0 L458.509615,66.9701087 L612,0 L765,66.4646739 L918,0 L1071.49038,66.9701087 L1224,0 L1377,66.9701087 L1530,0 L1530,26.2826087 L1377,93 L1224,25.7771739 L1071.49038,93 L917.019231,25.7771739 L765,93 Z" id="Combined-Shape"></path>
            </g>
            <g id="zig1" transform="translate(766.892438, 143.529778) scale(1, -1) translate(-766.892438, -143.529778) translate(2.459069, 96.997293)" fill="#FFFFFF">
                <path d="M764.5,93 L612.580128,25.7771739 L458.209936,93 L305.8,25.7771739 L152.9,93 L0,26.2826087 L0,0 L152.9,66.9701087 L305.8,0 L458.209936,66.9701087 L611.6,0 L764.5,66.4646739 L917.4,0 L1070.79006,66.9701087 L1223.2,0 L1376.1,66.9701087 L1529,0 L1529,26.2826087 L1376.1,93 L1223.2,25.7771739 L1070.79006,93 L916.419872,25.7771739 L764.5,93 Z" id="Combined-Shape"></path>
            </g>
            <g id="zig2" transform="translate(767.229535, 168.434488) scale(1, -1) translate(-767.229535, -168.434488) translate(2.459069, 121.902003)" fill="#E8FA00">
                <path d="M765,93 L612.980769,25.7771739 L458.509615,93 L306,25.7771739 L153,93 L0,26.2826087 L0,0 L153,66.9701087 L306,0 L458.509615,66.9701087 L612,0 L765,66.4646739 L918,0 L1071.49038,66.9701087 L1224,0 L1377,66.9701087 L1530,0 L1530,26.2826087 L1377,93 L1224,25.7771739 L1071.49038,93 L917.019231,25.7771739 L765,93 Z" id="Combined-Shape"></path>
            </g>
            <g id="zig3" transform="translate(767.229535, 117.969681) scale(1, -1) translate(-767.229535, -117.969681) translate(2.459069, 71.437195)" fill="#FF8A9D">
                <path d="M765,93 L612.980769,25.7771739 L458.509615,93 L306,25.7771739 L153,93 L0,26.2826087 L0,0 L153,66.9701087 L306,0 L458.509615,66.9701087 L612,0 L765,66.4646739 L918,0 L1071.49038,66.9701087 L1224,0 L1377,66.9701087 L1530,0 L1530,26.2826087 L1377,93 L1224,25.7771739 L1071.49038,93 L917.019231,25.7771739 L765,93 Z" id="Combined-Shape"></path>
            </g>
            <g id="zig1" transform="translate(767.043327, 219.495609) scale(1, -1) translate(-767.043327, -219.495609) translate(2.459069, 173.022198)" fill="#FFFFFF">
                <path d="M764.5,93 L612.580128,25.7771739 L458.209936,93 L305.8,25.7771739 L152.9,93 L0,26.2826087 L0,0 L152.9,66.9701087 L305.8,0 L458.209936,66.9701087 L611.6,0 L764.5,66.4646739 L917.4,0 L1070.79006,66.9701087 L1223.2,0 L1376.1,66.9701087 L1529,0 L1529,26.2826087 L1376.1,93 L1223.2,25.7771739 L1070.79006,93 L916.419872,25.7771739 L764.5,93 Z" id="Combined-Shape"></path>
            </g>
            <g id="zig2" transform="translate(767.229535, 243.804006) scale(1, -1) translate(-767.229535, -243.804006) translate(2.459069, 197.271521)" fill="#E8FA00">
                <path d="M765,93 L612.980769,25.7771739 L458.509615,93 L306,25.7771739 L153,93 L0,26.2826087 L0,0 L153,66.9701087 L306,0 L458.509615,66.9701087 L612,0 L765,66.4646739 L918,0 L1071.49038,66.9701087 L1224,0 L1377,66.9701087 L1530,0 L1530,26.2826087 L1377,93 L1224,25.7771739 L1071.49038,93 L917.019231,25.7771739 L765,93 Z" id="Combined-Shape"></path>
            </g>
            <g id="zig3" transform="translate(766.892438, 193.994586) scale(1, -1) translate(-766.892438, -193.994586) translate(2.459069, 147.462101)" fill="#FF8A9D">
                <path d="M764.5,93 L612.580128,25.7771739 L458.209936,93 L305.8,25.7771739 L152.9,93 L0,26.2826087 L0,0 L152.9,66.9701087 L305.8,0 L458.209936,66.9701087 L611.6,0 L764.5,66.4646739 L917.4,0 L1070.79006,66.9701087 L1223.2,0 L1376.1,66.9701087 L1529,0 L1529,26.2826087 L1376.1,93 L1223.2,25.7771739 L1070.79006,93 L916.419872,25.7771739 L764.5,93 Z" id="Combined-Shape"></path>
            </g>
            <g id="zig1" transform="translate(766.892438, 290.991879) scale(1, -1) translate(-766.892438, -290.991879) translate(2.459069, 244.459394)" fill="#FFFFFF">
                <path d="M764.5,93 L612.580128,25.7771739 L458.209936,93 L305.8,25.7771739 L152.9,93 L0,26.2826087 L0,0 L152.9,66.9701087 L305.8,0 L458.209936,66.9701087 L611.6,0 L764.5,66.4646739 L917.4,0 L1070.79006,66.9701087 L1223.2,0 L1376.1,66.9701087 L1529,0 L1529,26.2826087 L1376.1,93 L1223.2,25.7771739 L1070.79006,93 L916.419872,25.7771739 L764.5,93 Z" id="Combined-Shape"></path>
            </g>
            <g id="zig2" transform="translate(767.229535, 315.896589) scale(1, -1) translate(-767.229535, -315.896589) translate(2.459069, 269.364104)" fill="#E8FA00">
                <path d="M765,93 L612.980769,25.7771739 L458.509615,93 L306,25.7771739 L153,93 L0,26.2826087 L0,0 L153,66.9701087 L306,0 L458.509615,66.9701087 L612,0 L765,66.4646739 L918,0 L1071.49038,66.9701087 L1224,0 L1377,66.9701087 L1530,0 L1530,26.2826087 L1377,93 L1224,25.7771739 L1071.49038,93 L917.019231,25.7771739 L765,93 Z" id="Combined-Shape"></path>
            </g>
            <g id="zig3" transform="translate(767.229535, 264.776394) scale(1, -1) translate(-767.229535, -264.776394) translate(2.459069, 218.243909)" fill="#FF8A9D">
                <path d="M765,93 L612.980769,25.7771739 L458.509615,93 L306,25.7771739 L153,93 L0,26.2826087 L0,0 L153,66.9701087 L306,0 L458.509615,66.9701087 L612,0 L765,66.4646739 L918,0 L1071.49038,66.9701087 L1224,0 L1377,66.9701087 L1530,0 L1530,26.2826087 L1377,93 L1224,25.7771739 L1071.49038,93 L917.019231,25.7771739 L765,93 Z" id="Combined-Shape"></path>
            </g>
            <g id="zig1" transform="translate(767.229535, 365.706010) scale(1, -1) translate(-767.229535, -365.706010) translate(2.459069, 319.173525)" fill="#FFFFFF">
                <path d="M765,93 L612.980769,25.7771739 L458.509615,93 L306,25.7771739 L153,93 L0,26.2826087 L0,0 L153,66.9701087 L306,0 L458.509615,66.9701087 L612,0 L765,66.4646739 L918,0 L1071.49038,66.9701087 L1224,0 L1377,66.9701087 L1530,0 L1530,26.2826087 L1377,93 L1224,25.7771739 L1071.49038,93 L917.019231,25.7771739 L765,93 Z" id="Combined-Shape"></path>
            </g>
            <g id="zig2" transform="translate(767.229535, 390.610720) scale(1, -1) translate(-767.229535, -390.610720) translate(2.459069, 344.078235)" fill="#E8FA00">
                <path d="M765,93 L612.980769,25.7771739 L458.509615,93 L306,25.7771739 L153,93 L0,26.2826087 L0,0 L153,66.9701087 L306,0 L458.509615,66.9701087 L612,0 L765,66.4646739 L918,0 L1071.49038,66.9701087 L1224,0 L1377,66.9701087 L1530,0 L1530,26.2826087 L1377,93 L1224,25.7771739 L1071.49038,93 L917.019231,25.7771739 L765,93 Z" id="Combined-Shape"></path>
            </g>
            <g id="zig3" transform="translate(767.043327, 340.742225) scale(1, -1) translate(-767.043327, -340.742225) translate(2.459069, 294.268814)" fill="#FF8A9D">
                <path d="M764.5,93 L612.580128,25.7771739 L458.209936,93 L305.8,25.7771739 L152.9,93 L0,26.2826087 L0,0 L152.9,66.9701087 L305.8,0 L458.209936,66.9701087 L611.6,0 L764.5,66.4646739 L917.4,0 L1070.79006,66.9701087 L1223.2,0 L1376.1,66.9701087 L1529,0 L1529,26.2826087 L1376.1,93 L1223.2,25.7771739 L1070.79006,93 L916.419872,25.7771739 L764.5,93 Z" id="Combined-Shape"></path>
            </g>
            <g id="zig1" transform="translate(765.813792, 437.708320) scale(1, -1) translate(-765.813792, -437.708320) translate(1.229535, 391.266107)" fill="#FFFFFF">
                <path d="M764.5,93 L612.580128,25.7771739 L458.209936,93 L305.8,25.7771739 L152.9,93 L0,26.2826087 L0,0 L152.9,66.9701087 L305.8,0 L458.209936,66.9701087 L611.6,0 L764.5,66.4646739 L917.4,0 L1070.79006,66.9701087 L1223.2,0 L1376.1,66.9701087 L1529,0 L1529,26.2826087 L1376.1,93 L1223.2,25.7771739 L1070.79006,93 L916.419872,25.7771739 L764.5,93 Z" id="Combined-Shape"></path>
            </g>
            <g id="zig2" transform="translate(767.229535, 462.703303) scale(1, -1) translate(-767.229535, -462.703303) translate(2.459069, 416.170818)" fill="#E8FA00">
                <path d="M765,93 L612.980769,25.7771739 L458.509615,93 L306,25.7771739 L153,93 L0,26.2826087 L0,0 L153,66.9701087 L306,0 L458.509615,66.9701087 L612,0 L765,66.4646739 L918,0 L1071.49038,66.9701087 L1224,0 L1377,66.9701087 L1530,0 L1530,26.2826087 L1377,93 L1224,25.7771739 L1071.49038,93 L917.019231,25.7771739 L765,93 Z" id="Combined-Shape"></path>
            </g>
            <g id="zig3" transform="translate(767.229535, 412.893882) scale(1, -1) translate(-767.229535, -412.893882) translate(2.459069, 366.361397)" fill="#FF8A9D">
                <path d="M765,93 L612.980769,25.7771739 L458.509615,93 L306,25.7771739 L153,93 L0,26.2826087 L0,0 L153,66.9701087 L306,0 L458.509615,66.9701087 L612,0 L765,66.4646739 L918,0 L1071.49038,66.9701087 L1224,0 L1377,66.9701087 L1530,0 L1530,26.2826087 L1377,93 L1224,25.7771739 L1071.49038,93 L917.019231,25.7771739 L765,93 Z" id="Combined-Shape"></path>
            </g>
            <g id="zig1" transform="translate(767.229535, 513.823498) scale(1, -1) translate(-767.229535, -513.823498) translate(2.459069, 467.291012)" fill="#FFFFFF">
                <path d="M765,93 L612.980769,25.7771739 L458.509615,93 L306,25.7771739 L153,93 L0,26.2826087 L0,0 L153,66.9701087 L306,0 L458.509615,66.9701087 L612,0 L765,66.4646739 L918,0 L1071.49038,66.9701087 L1224,0 L1377,66.9701087 L1530,0 L1530,26.2826087 L1377,93 L1224,25.7771739 L1071.49038,93 L917.019231,25.7771739 L765,93 Z" id="Combined-Shape"></path>
            </g>
            <g id="zig2" transform="translate(767.043327, 538.669133) scale(1, -1) translate(-767.043327, -538.669133) translate(2.459069, 492.195723)" fill="#E8FA00">
                <path d="M764.5,93 L612.580128,25.7771739 L458.209936,93 L305.8,25.7771739 L152.9,93 L0,26.2826087 L0,0 L152.9,66.9701087 L305.8,0 L458.209936,66.9701087 L611.6,0 L764.5,66.4646739 L917.4,0 L1070.79006,66.9701087 L1223.2,0 L1376.1,66.9701087 L1529,0 L1529,26.2826087 L1376.1,93 L1223.2,25.7771739 L1070.79006,93 L916.419872,25.7771739 L764.5,93 Z" id="Combined-Shape"></path>
            </g>
            <g id="zig3" transform="translate(767.043327, 488.204326) scale(1, -1) translate(-767.043327, -488.204326) translate(2.459069, 441.730915)" fill="#FF8A9D">
                <path d="M764.5,93 L612.580128,25.7771739 L458.209936,93 L305.8,25.7771739 L152.9,93 L0,26.2826087 L0,0 L152.9,66.9701087 L305.8,0 L458.209936,66.9701087 L611.6,0 L764.5,66.4646739 L917.4,0 L1070.79006,66.9701087 L1223.2,0 L1376.1,66.9701087 L1529,0 L1529,26.2826087 L1376.1,93 L1223.2,25.7771739 L1070.79006,93 L916.419872,25.7771739 L764.5,93 Z" id="Combined-Shape"></path>
            </g>
            <g id="zig1" transform="translate(765.813792, 585.170421) scale(1, -1) translate(-765.813792, -585.170421) translate(1.229535, 538.728208)" fill="#FFFFFF">
                <path d="M764.5,93 L612.580128,25.7771739 L458.209936,93 L305.8,25.7771739 L152.9,93 L0,26.2826087 L0,0 L152.9,66.9701087 L305.8,0 L458.209936,66.9701087 L611.6,0 L764.5,66.4646739 L917.4,0 L1070.79006,66.9701087 L1223.2,0 L1376.1,66.9701087 L1529,0 L1529,26.2826087 L1376.1,93 L1223.2,25.7771739 L1070.79006,93 L916.419872,25.7771739 L764.5,93 Z" id="Combined-Shape"></path>
            </g>
            <g id="zig2" transform="translate(766.892438, 610.165403) scale(1, -1) translate(-766.892438, -610.165403) translate(2.459069, 563.632918)" fill="#E8FA00">
                <path d="M764.5,93 L612.580128,25.7771739 L458.209936,93 L305.8,25.7771739 L152.9,93 L0,26.2826087 L0,0 L152.9,66.9701087 L305.8,0 L458.209936,66.9701087 L611.6,0 L764.5,66.4646739 L917.4,0 L1070.79006,66.9701087 L1223.2,0 L1376.1,66.9701087 L1529,0 L1529,26.2826087 L1376.1,93 L1223.2,25.7771739 L1070.79006,93 L916.419872,25.7771739 L764.5,93 Z" id="Combined-Shape"></path>
            </g>
            <g id="zig3" transform="translate(766.892438, 559.700596) scale(1, -1) translate(-766.892438, -559.700596) translate(2.459069, 513.168110)" fill="#FF8A9D">
                <path d="M764.5,93 L612.580128,25.7771739 L458.209936,93 L305.8,25.7771739 L152.9,93 L0,26.2826087 L0,0 L152.9,66.9701087 L305.8,0 L458.209936,66.9701087 L611.6,0 L764.5,66.4646739 L917.4,0 L1070.79006,66.9701087 L1223.2,0 L1376.1,66.9701087 L1529,0 L1529,26.2826087 L1376.1,93 L1223.2,25.7771739 L1070.79006,93 L916.419872,25.7771739 L764.5,93 Z" id="Combined-Shape"></path>
            </g>
            <g id="zig1" transform="translate(766.892438, 660.630211) scale(1, -1) translate(-766.892438, -660.630211) translate(2.459069, 614.097726)" fill="#FFFFFF">
                <path d="M764.5,93 L612.580128,25.7771739 L458.209936,93 L305.8,25.7771739 L152.9,93 L0,26.2826087 L0,0 L152.9,66.9701087 L305.8,0 L458.209936,66.9701087 L611.6,0 L764.5,66.4646739 L917.4,0 L1070.79006,66.9701087 L1223.2,0 L1376.1,66.9701087 L1529,0 L1529,26.2826087 L1376.1,93 L1223.2,25.7771739 L1070.79006,93 L916.419872,25.7771739 L764.5,93 Z" id="Combined-Shape"></path>
            </g>
            <g id="zig2" transform="translate(767.229535, 685.534921) scale(1, -1) translate(-767.229535, -685.534921) translate(2.459069, 639.002436)" fill="#E8FA00">
                <path d="M765,93 L612.980769,25.7771739 L458.509615,93 L306,25.7771739 L153,93 L0,26.2826087 L0,0 L153,66.9701087 L306,0 L458.509615,66.9701087 L612,0 L765,66.4646739 L918,0 L1071.49038,66.9701087 L1224,0 L1377,66.9701087 L1530,0 L1530,26.2826087 L1377,93 L1224,25.7771739 L1071.49038,93 L917.019231,25.7771739 L765,93 Z" id="Combined-Shape"></path>
            </g>
            <g id="zig3" transform="translate(767.229535, 635.070114) scale(1, -1) translate(-767.229535, -635.070114) translate(2.459069, 588.537629)" fill="#FF8A9D">
                <path d="M765,93 L612.980769,25.7771739 L458.509615,93 L306,25.7771739 L153,93 L0,26.2826087 L0,0 L153,66.9701087 L306,0 L458.509615,66.9701087 L612,0 L765,66.4646739 L918,0 L1071.49038,66.9701087 L1224,0 L1377,66.9701087 L1530,0 L1530,26.2826087 L1377,93 L1224,25.7771739 L1071.49038,93 L917.019231,25.7771739 L765,93 Z" id="Combined-Shape"></path>
            </g>
            <g id="zig1" transform="translate(767.229535, 732.067407) scale(1, -1) translate(-767.229535, -732.067407) translate(2.459069, 685.534921)" fill="#FFFFFF">
                <path d="M765,93 L612.980769,25.7771739 L458.509615,93 L306,25.7771739 L153,93 L0,26.2826087 L0,0 L153,66.9701087 L306,0 L458.509615,66.9701087 L612,0 L765,66.4646739 L918,0 L1071.49038,66.9701087 L1224,0 L1377,66.9701087 L1530,0 L1530,26.2826087 L1377,93 L1224,25.7771739 L1071.49038,93 L917.019231,25.7771739 L765,93 Z" id="Combined-Shape"></path>
            </g>
            <g id="zig2" transform="translate(767.229535, 757.627504) scale(1, -1) translate(-767.229535, -757.627504) translate(2.459069, 711.095019)" fill="#E8FA00">
                <path d="M765,93 L612.980769,25.7771739 L458.509615,93 L306,25.7771739 L153,93 L0,26.2826087 L0,0 L153,66.9701087 L306,0 L458.509615,66.9701087 L612,0 L765,66.4646739 L918,0 L1071.49038,66.9701087 L1224,0 L1377,66.9701087 L1530,0 L1530,26.2826087 L1377,93 L1224,25.7771739 L1071.49038,93 L917.019231,25.7771739 L765,93 Z" id="Combined-Shape"></path>
            </g>
            <g id="zig3" transform="translate(765.813792, 707.072424) scale(1, -1) translate(-765.813792, -707.072424) translate(1.229535, 660.630211)" fill="#FF8A9D">
                <path d="M764.5,93 L612.580128,25.7771739 L458.209936,93 L305.8,25.7771739 L152.9,93 L0,26.2826087 L0,0 L152.9,66.9701087 L305.8,0 L458.209936,66.9701087 L611.6,0 L764.5,66.4646739 L917.4,0 L1070.79006,66.9701087 L1223.2,0 L1376.1,66.9701087 L1529,0 L1529,26.2826087 L1376.1,93 L1223.2,25.7771739 L1070.79006,93 L916.419872,25.7771739 L764.5,93 Z" id="Combined-Shape"></path>
            </g>
            <g id="zig1" transform="translate(765.813792, 808.002039) scale(1, -1) translate(-765.813792, -808.002039) translate(1.229535, 761.559827)" fill="#FFFFFF">
                <path d="M764.5,93 L612.580128,25.7771739 L458.209936,93 L305.8,25.7771739 L152.9,93 L0,26.2826087 L0,0 L152.9,66.9701087 L305.8,0 L458.209936,66.9701087 L611.6,0 L764.5,66.4646739 L917.4,0 L1070.79006,66.9701087 L1223.2,0 L1376.1,66.9701087 L1529,0 L1529,26.2826087 L1376.1,93 L1223.2,25.7771739 L1070.79006,93 L916.419872,25.7771739 L764.5,93 Z" id="Combined-Shape"></path>
            </g>
            <g id="zig2" transform="translate(767.229535, 832.997022) scale(1, -1) translate(-767.229535, -832.997022) translate(2.459069, 786.464537)" fill="#E8FA00">
                <path d="M765,93 L612.980769,25.7771739 L458.509615,93 L306,25.7771739 L153,93 L0,26.2826087 L0,0 L153,66.9701087 L306,0 L458.509615,66.9701087 L612,0 L765,66.4646739 L918,0 L1071.49038,66.9701087 L1224,0 L1377,66.9701087 L1530,0 L1530,26.2826087 L1377,93 L1224,25.7771739 L1071.49038,93 L917.019231,25.7771739 L765,93 Z" id="Combined-Shape"></path>
            </g>
            <g id="zig1" transform="translate(767.229535, 880.184894) scale(1, -1) translate(-767.229535, -880.184894) translate(2.459069, 833.652409)" fill="#FFFFFF">
                <path d="M765,93 L612.980769,25.7771739 L458.509615,93 L306,25.7771739 L153,93 L0,26.2826087 L0,0 L153,66.9701087 L306,0 L458.509615,66.9701087 L612,0 L765,66.4646739 L918,0 L1071.49038,66.9701087 L1224,0 L1377,66.9701087 L1530,0 L1530,26.2826087 L1377,93 L1224,25.7771739 L1071.49038,93 L917.019231,25.7771739 L765,93 Z" id="Combined-Shape"></path>
            </g>
            <g id="zig2" transform="translate(765.813792, 904.343945) scale(1, -1) translate(-765.813792, -904.343945) translate(1.229535, 857.901733)" fill="#E8FA00">
                <path d="M764.5,93 L612.580128,25.7771739 L458.209936,93 L305.8,25.7771739 L152.9,93 L0,26.2826087 L0,0 L152.9,66.9701087 L305.8,0 L458.209936,66.9701087 L611.6,0 L764.5,66.4646739 L917.4,0 L1070.79006,66.9701087 L1223.2,0 L1376.1,66.9701087 L1529,0 L1529,26.2826087 L1376.1,93 L1223.2,25.7771739 L1070.79006,93 L916.419872,25.7771739 L764.5,93 Z" id="Combined-Shape"></path>
            </g>
            <g id="zig3" transform="translate(767.229535, 855.280184) scale(1, -1) translate(-767.229535, -855.280184) translate(2.459069, 808.747699)" fill="#FF8A9D">
                <path d="M765,93 L612.980769,25.7771739 L458.509615,93 L306,25.7771739 L153,93 L0,26.2826087 L0,0 L153,66.9701087 L306,0 L458.509615,66.9701087 L612,0 L765,66.4646739 L918,0 L1071.49038,66.9701087 L1224,0 L1377,66.9701087 L1530,0 L1530,26.2826087 L1377,93 L1224,25.7771739 L1071.49038,93 L917.019231,25.7771739 L765,93 Z" id="Combined-Shape"></path>
            </g>
            <g id="zig1" transform="translate(766.892438, 955.554413) scale(1, -1) translate(-766.892438, -955.554413) translate(2.459069, 909.021927)" fill="#FFFFFF">
                <path d="M764.5,93 L612.580128,25.7771739 L458.209936,93 L305.8,25.7771739 L152.9,93 L0,26.2826087 L0,0 L152.9,66.9701087 L305.8,0 L458.209936,66.9701087 L611.6,0 L764.5,66.4646739 L917.4,0 L1070.79006,66.9701087 L1223.2,0 L1376.1,66.9701087 L1529,0 L1529,26.2826087 L1376.1,93 L1223.2,25.7771739 L1070.79006,93 L916.419872,25.7771739 L764.5,93 Z" id="Combined-Shape"></path>
            </g>
            <g id="zig2" transform="translate(767.229535, 981.114510) scale(1, -1) translate(-767.229535, -981.114510) translate(2.459069, 934.582025)" fill="#E8FA00">
                <path d="M765,93 L612.980769,25.7771739 L458.509615,93 L306,25.7771739 L153,93 L0,26.2826087 L0,0 L153,66.9701087 L306,0 L458.509615,66.9701087 L612,0 L765,66.4646739 L918,0 L1071.49038,66.9701087 L1224,0 L1377,66.9701087 L1530,0 L1530,26.2826087 L1377,93 L1224,25.7771739 L1071.49038,93 L917.019231,25.7771739 L765,93 Z" id="Combined-Shape"></path>
            </g>
            <g id="zig3" transform="translate(765.813792, 929.904043) scale(1, -1) translate(-765.813792, -929.904043) translate(1.229535, 883.461830)" fill="#FF8A9D">
                <path d="M764.5,93 L612.580128,25.7771739 L458.209936,93 L305.8,25.7771739 L152.9,93 L0,26.2826087 L0,0 L152.9,66.9701087 L305.8,0 L458.209936,66.9701087 L611.6,0 L764.5,66.4646739 L917.4,0 L1070.79006,66.9701087 L1223.2,0 L1376.1,66.9701087 L1529,0 L1529,26.2826087 L1376.1,93 L1223.2,25.7771739 L1070.79006,93 L916.419872,25.7771739 L764.5,93 Z" id="Combined-Shape"></path>
            </g>
            <g id="zig1" transform="translate(765.813792, 1027.556723) scale(1, -1) translate(-765.813792, -1027.556723) translate(1.229535, 981.114510)" fill="#FFFFFF">
                <path d="M764.5,93 L612.580128,25.7771739 L458.209936,93 L305.8,25.7771739 L152.9,93 L0,26.2826087 L0,0 L152.9,66.9701087 L305.8,0 L458.209936,66.9701087 L611.6,0 L764.5,66.4646739 L917.4,0 L1070.79006,66.9701087 L1223.2,0 L1376.1,66.9701087 L1529,0 L1529,26.2826087 L1376.1,93 L1223.2,25.7771739 L1070.79006,93 L916.419872,25.7771739 L764.5,93 Z" id="Combined-Shape"></path>
            </g>
            <g id="zig2" transform="translate(767.043327, 1053.148018) scale(1, -1) translate(-767.043327, -1053.148018) translate(2.459069, 1006.674607)" fill="#E8FA00">
                <path d="M764.5,93 L612.580128,25.7771739 L458.209936,93 L305.8,25.7771739 L152.9,93 L0,26.2826087 L0,0 L152.9,66.9701087 L305.8,0 L458.209936,66.9701087 L611.6,0 L764.5,66.4646739 L917.4,0 L1070.79006,66.9701087 L1223.2,0 L1376.1,66.9701087 L1529,0 L1529,26.2826087 L1376.1,93 L1223.2,25.7771739 L1070.79006,93 L916.419872,25.7771739 L764.5,93 Z" id="Combined-Shape"></path>
            </g>
            <g id="zig3" transform="translate(767.229535, 1002.086898) scale(1, -1) translate(-767.229535, -1002.086898) translate(2.459069, 955.554413)" fill="#FF8A9D">
                <path d="M765,93 L612.980769,25.7771739 L458.509615,93 L306,25.7771739 L153,93 L0,26.2826087 L0,0 L153,66.9701087 L306,0 L458.509615,66.9701087 L612,0 L765,66.4646739 L918,0 L1071.49038,66.9701087 L1224,0 L1377,66.9701087 L1530,0 L1530,26.2826087 L1377,93 L1224,25.7771739 L1071.49038,93 L917.019231,25.7771739 L765,93 Z" id="Combined-Shape"></path>
            </g>
            <g id="zig1" transform="translate(765.813792, 1102.926241) scale(1, -1) translate(-765.813792, -1102.926241) translate(1.229535, 1056.484028)" fill="#FFFFFF">
                <path d="M764.5,93 L612.580128,25.7771739 L458.209936,93 L305.8,25.7771739 L152.9,93 L0,26.2826087 L0,0 L152.9,66.9701087 L305.8,0 L458.209936,66.9701087 L611.6,0 L764.5,66.4646739 L917.4,0 L1070.79006,66.9701087 L1223.2,0 L1376.1,66.9701087 L1529,0 L1529,26.2826087 L1376.1,93 L1223.2,25.7771739 L1070.79006,93 L916.419872,25.7771739 L764.5,93 Z" id="Combined-Shape"></path>
            </g>
            <g id="zig2" transform="translate(767.229535, 1127.265836) scale(1, -1) translate(-767.229535, -1127.265836) translate(2.459069, 1080.733351)" fill="#E8FA00">
                <path d="M765,93 L612.980769,25.7771739 L458.509615,93 L306,25.7771739 L153,93 L0,26.2826087 L0,0 L153,66.9701087 L306,0 L458.509615,66.9701087 L612,0 L765,66.4646739 L918,0 L1071.49038,66.9701087 L1224,0 L1377,66.9701087 L1530,0 L1530,26.2826087 L1377,93 L1224,25.7771739 L1071.49038,93 L917.019231,25.7771739 L765,93 Z" id="Combined-Shape"></path>
            </g>
            <g id="zig3" transform="translate(767.229535, 1077.456416) scale(1, -1) translate(-767.229535, -1077.456416) translate(2.459069, 1030.923931)" fill="#FF8A9D">
                <path d="M765,93 L612.980769,25.7771739 L458.509615,93 L306,25.7771739 L153,93 L0,26.2826087 L0,0 L153,66.9701087 L306,0 L458.509615,66.9701087 L612,0 L765,66.4646739 L918,0 L1071.49038,66.9701087 L1224,0 L1377,66.9701087 L1530,0 L1530,26.2826087 L1377,93 L1224,25.7771739 L1071.49038,93 L917.019231,25.7771739 L765,93 Z" id="Combined-Shape"></path>
            </g>
            <g id="zig1" transform="translate(767.229535, 1174.453709) scale(1, -1) translate(-767.229535, -1174.453709) translate(2.459069, 1127.921224)" fill="#FFFFFF">
                <path d="M765,93 L612.980769,25.7771739 L458.509615,93 L306,25.7771739 L153,93 L0,26.2826087 L0,0 L153,66.9701087 L306,0 L458.509615,66.9701087 L612,0 L765,66.4646739 L918,0 L1071.49038,66.9701087 L1224,0 L1377,66.9701087 L1530,0 L1530,26.2826087 L1377,93 L1224,25.7771739 L1071.49038,93 L917.019231,25.7771739 L765,93 Z" id="Combined-Shape"></path>
            </g>
            <g id="zig2" transform="translate(767.043327, 1199.954732) scale(1, -1) translate(-767.043327, -1199.954732) translate(2.459069, 1153.481321)" fill="#E8FA00">
                <path d="M764.5,93 L612.580128,25.7771739 L458.209936,93 L305.8,25.7771739 L152.9,93 L0,26.2826087 L0,0 L152.9,66.9701087 L305.8,0 L458.209936,66.9701087 L611.6,0 L764.5,66.4646739 L917.4,0 L1070.79006,66.9701087 L1223.2,0 L1376.1,66.9701087 L1529,0 L1529,26.2826087 L1376.1,93 L1223.2,25.7771739 L1070.79006,93 L916.419872,25.7771739 L764.5,93 Z" id="Combined-Shape"></path>
            </g>
            <g id="zig3" transform="translate(766.892438, 1148.893611) scale(1, -1) translate(-766.892438, -1148.893611) translate(2.459069, 1102.361126)" fill="#FF8A9D">
                <path d="M764.5,93 L612.580128,25.7771739 L458.209936,93 L305.8,25.7771739 L152.9,93 L0,26.2826087 L0,0 L152.9,66.9701087 L305.8,0 L458.209936,66.9701087 L611.6,0 L764.5,66.4646739 L917.4,0 L1070.79006,66.9701087 L1223.2,0 L1376.1,66.9701087 L1529,0 L1529,26.2826087 L1376.1,93 L1223.2,25.7771739 L1070.79006,93 L916.419872,25.7771739 L764.5,93 Z" id="Combined-Shape"></path>
            </g>
            <g id="zig3" transform="translate(767.229535, 46.532485) scale(1, -1) translate(-767.229535, -46.532485) translate(2.459069, 0.000000)" fill="#FF8A9D">
                <path d="M765,93 L612.980769,25.7771739 L458.509615,93 L306,25.7771739 L153,93 L0,26.2826087 L0,0 L153,66.9701087 L306,0 L458.509615,66.9701087 L612,0 L765,66.4646739 L918,0 L1071.49038,66.9701087 L1224,0 L1377,66.9701087 L1530,0 L1530,26.2826087 L1377,93 L1224,25.7771739 L1071.49038,93 L917.019231,25.7771739 L765,93 Z" id="Combined-Shape"></path>
            </g>
            <g id="zig3" transform="translate(766.000000, 1956.330536) scale(1, -1) translate(-766.000000, -1956.330536) translate(1.229535, 1909.798051)" fill="#FF8A9D">
                <path d="M765,93 L612.980769,25.7771739 L458.509615,93 L306,25.7771739 L153,93 L0,26.2826087 L0,0 L153,66.9701087 L306,0 L458.509615,66.9701087 L612,0 L765,66.4646739 L918,0 L1071.49038,66.9701087 L1224,0 L1377,66.9701087 L1530,0 L1530,26.2826087 L1377,93 L1224,25.7771739 L1071.49038,93 L917.019231,25.7771739 L765,93 Z" id="Combined-Shape"></path>
            </g>
            <g id="zig1" transform="translate(765.662904, 1245.235517) scale(1, -1) translate(-765.662904, -1245.235517) translate(1.229535, 1198.703032)" fill="#FFFFFF">
                <path d="M764.5,93 L612.580128,25.7771739 L458.209936,93 L305.8,25.7771739 L152.9,93 L0,26.2826087 L0,0 L152.9,66.9701087 L305.8,0 L458.209936,66.9701087 L611.6,0 L764.5,66.4646739 L917.4,0 L1070.79006,66.9701087 L1223.2,0 L1376.1,66.9701087 L1529,0 L1529,26.2826087 L1376.1,93 L1223.2,25.7771739 L1070.79006,93 L916.419872,25.7771739 L764.5,93 Z" id="Combined-Shape"></path>
            </g>
            <g id="zig2" transform="translate(766.000000, 1270.795615) scale(1, -1) translate(-766.000000, -1270.795615) translate(1.229535, 1224.263129)" fill="#E8FA00">
                <path d="M765,93 L612.980769,25.7771739 L458.509615,93 L306,25.7771739 L153,93 L0,26.2826087 L0,0 L153,66.9701087 L306,0 L458.509615,66.9701087 L612,0 L765,66.4646739 L918,0 L1071.49038,66.9701087 L1224,0 L1377,66.9701087 L1530,0 L1530,26.2826087 L1377,93 L1224,25.7771739 L1071.49038,93 L917.019231,25.7771739 L765,93 Z" id="Combined-Shape"></path>
            </g>
            <g id="zig1" transform="translate(765.662904, 1317.983487) scale(1, -1) translate(-765.662904, -1317.983487) translate(1.229535, 1271.451002)" fill="#FFFFFF">
                <path d="M764.5,93 L612.580128,25.7771739 L458.209936,93 L305.8,25.7771739 L152.9,93 L0,26.2826087 L0,0 L152.9,66.9701087 L305.8,0 L458.209936,66.9701087 L611.6,0 L764.5,66.4646739 L917.4,0 L1070.79006,66.9701087 L1223.2,0 L1376.1,66.9701087 L1529,0 L1529,26.2826087 L1376.1,93 L1223.2,25.7771739 L1070.79006,93 L916.419872,25.7771739 L764.5,93 Z" id="Combined-Shape"></path>
            </g>
            <g id="zig2" transform="translate(766.000000, 1342.888197) scale(1, -1) translate(-766.000000, -1342.888197) translate(1.229535, 1296.355712)" fill="#E8FA00">
                <path d="M765,93 L612.980769,25.7771739 L458.509615,93 L306,25.7771739 L153,93 L0,26.2826087 L0,0 L153,66.9701087 L306,0 L458.509615,66.9701087 L612,0 L765,66.4646739 L918,0 L1071.49038,66.9701087 L1224,0 L1377,66.9701087 L1530,0 L1530,26.2826087 L1377,93 L1224,25.7771739 L1071.49038,93 L917.019231,25.7771739 L765,93 Z" id="Combined-Shape"></path>
            </g>
            <g id="zig3" transform="translate(766.000000, 1292.423389) scale(1, -1) translate(-766.000000, -1292.423389) translate(1.229535, 1245.890904)" fill="#FF8A9D">
                <path d="M765,93 L612.980769,25.7771739 L458.509615,93 L306,25.7771739 L153,93 L0,26.2826087 L0,0 L153,66.9701087 L306,0 L458.509615,66.9701087 L612,0 L765,66.4646739 L918,0 L1071.49038,66.9701087 L1224,0 L1377,66.9701087 L1530,0 L1530,26.2826087 L1377,93 L1224,25.7771739 L1071.49038,93 L917.019231,25.7771739 L765,93 Z" id="Combined-Shape"></path>
            </g>
            <g id="zig1" transform="translate(765.813792, 1393.949317) scale(1, -1) translate(-765.813792, -1393.949317) translate(1.229535, 1347.475907)" fill="#FFFFFF">
                <path d="M764.5,93 L612.580128,25.7771739 L458.209936,93 L305.8,25.7771739 L152.9,93 L0,26.2826087 L0,0 L152.9,66.9701087 L305.8,0 L458.209936,66.9701087 L611.6,0 L764.5,66.4646739 L917.4,0 L1070.79006,66.9701087 L1223.2,0 L1376.1,66.9701087 L1529,0 L1529,26.2826087 L1376.1,93 L1223.2,25.7771739 L1070.79006,93 L916.419872,25.7771739 L764.5,93 Z" id="Combined-Shape"></path>
            </g>
            <g id="zig2" transform="translate(766.000000, 1418.257715) scale(1, -1) translate(-766.000000, -1418.257715) translate(1.229535, 1371.725230)" fill="#E8FA00">
                <path d="M765,93 L612.980769,25.7771739 L458.509615,93 L306,25.7771739 L153,93 L0,26.2826087 L0,0 L153,66.9701087 L306,0 L458.509615,66.9701087 L612,0 L765,66.4646739 L918,0 L1071.49038,66.9701087 L1224,0 L1377,66.9701087 L1530,0 L1530,26.2826087 L1377,93 L1224,25.7771739 L1071.49038,93 L917.019231,25.7771739 L765,93 Z" id="Combined-Shape"></path>
            </g>
            <g id="zig3" transform="translate(765.662904, 1368.448295) scale(1, -1) translate(-765.662904, -1368.448295) translate(1.229535, 1321.915809)" fill="#FF8A9D">
                <path d="M764.5,93 L612.580128,25.7771739 L458.209936,93 L305.8,25.7771739 L152.9,93 L0,26.2826087 L0,0 L152.9,66.9701087 L305.8,0 L458.209936,66.9701087 L611.6,0 L764.5,66.4646739 L917.4,0 L1070.79006,66.9701087 L1223.2,0 L1376.1,66.9701087 L1529,0 L1529,26.2826087 L1376.1,93 L1223.2,25.7771739 L1070.79006,93 L916.419872,25.7771739 L764.5,93 Z" id="Combined-Shape"></path>
            </g>
            <g id="zig1" transform="translate(765.662904, 1465.445587) scale(1, -1) translate(-765.662904, -1465.445587) translate(1.229535, 1418.913102)" fill="#FFFFFF">
                <path d="M764.5,93 L612.580128,25.7771739 L458.209936,93 L305.8,25.7771739 L152.9,93 L0,26.2826087 L0,0 L152.9,66.9701087 L305.8,0 L458.209936,66.9701087 L611.6,0 L764.5,66.4646739 L917.4,0 L1070.79006,66.9701087 L1223.2,0 L1376.1,66.9701087 L1529,0 L1529,26.2826087 L1376.1,93 L1223.2,25.7771739 L1070.79006,93 L916.419872,25.7771739 L764.5,93 Z" id="Combined-Shape"></path>
            </g>
            <g id="zig2" transform="translate(766.000000, 1490.350298) scale(1, -1) translate(-766.000000, -1490.350298) translate(1.229535, 1443.817813)" fill="#E8FA00">
                <path d="M765,93 L612.980769,25.7771739 L458.509615,93 L306,25.7771739 L153,93 L0,26.2826087 L0,0 L153,66.9701087 L306,0 L458.509615,66.9701087 L612,0 L765,66.4646739 L918,0 L1071.49038,66.9701087 L1224,0 L1377,66.9701087 L1530,0 L1530,26.2826087 L1377,93 L1224,25.7771739 L1071.49038,93 L917.019231,25.7771739 L765,93 Z" id="Combined-Shape"></path>
            </g>
            <g id="zig3" transform="translate(766.000000, 1439.230103) scale(1, -1) translate(-766.000000, -1439.230103) translate(1.229535, 1392.697618)" fill="#FF8A9D">
                <path d="M765,93 L612.980769,25.7771739 L458.509615,93 L306,25.7771739 L153,93 L0,26.2826087 L0,0 L153,66.9701087 L306,0 L458.509615,66.9701087 L612,0 L765,66.4646739 L918,0 L1071.49038,66.9701087 L1224,0 L1377,66.9701087 L1530,0 L1530,26.2826087 L1377,93 L1224,25.7771739 L1071.49038,93 L917.019231,25.7771739 L765,93 Z" id="Combined-Shape"></path>
            </g>
            <g id="zig1" transform="translate(766.000000, 1540.159718) scale(1, -1) translate(-766.000000, -1540.159718) translate(1.229535, 1493.627233)" fill="#FFFFFF">
                <path d="M765,93 L612.980769,25.7771739 L458.509615,93 L306,25.7771739 L153,93 L0,26.2826087 L0,0 L153,66.9701087 L306,0 L458.509615,66.9701087 L612,0 L765,66.4646739 L918,0 L1071.49038,66.9701087 L1224,0 L1377,66.9701087 L1530,0 L1530,26.2826087 L1377,93 L1224,25.7771739 L1071.49038,93 L917.019231,25.7771739 L765,93 Z" id="Combined-Shape"></path>
            </g>
            <g id="zig2" transform="translate(766.000000, 1565.064429) scale(1, -1) translate(-766.000000, -1565.064429) translate(1.229535, 1518.531944)" fill="#E8FA00">
                <path d="M765,93 L612.980769,25.7771739 L458.509615,93 L306,25.7771739 L153,93 L0,26.2826087 L0,0 L153,66.9701087 L306,0 L458.509615,66.9701087 L612,0 L765,66.4646739 L918,0 L1071.49038,66.9701087 L1224,0 L1377,66.9701087 L1530,0 L1530,26.2826087 L1377,93 L1224,25.7771739 L1071.49038,93 L917.019231,25.7771739 L765,93 Z" id="Combined-Shape"></path>
            </g>
            <g id="zig3" transform="translate(765.813792, 1515.195934) scale(1, -1) translate(-765.813792, -1515.195934) translate(1.229535, 1468.722523)" fill="#FF8A9D">
                <path d="M764.5,93 L612.580128,25.7771739 L458.209936,93 L305.8,25.7771739 L152.9,93 L0,26.2826087 L0,0 L152.9,66.9701087 L305.8,0 L458.209936,66.9701087 L611.6,0 L764.5,66.4646739 L917.4,0 L1070.79006,66.9701087 L1223.2,0 L1376.1,66.9701087 L1529,0 L1529,26.2826087 L1376.1,93 L1223.2,25.7771739 L1070.79006,93 L916.419872,25.7771739 L764.5,93 Z" id="Combined-Shape"></path>
            </g>
            <g id="zig1" transform="translate(764.584257, 1612.162029) scale(1, -1) translate(-764.584257, -1612.162029) translate(0.000000, 1565.719816)" fill="#FFFFFF">
                <path d="M764.5,93 L612.580128,25.7771739 L458.209936,93 L305.8,25.7771739 L152.9,93 L0,26.2826087 L0,0 L152.9,66.9701087 L305.8,0 L458.209936,66.9701087 L611.6,0 L764.5,66.4646739 L917.4,0 L1070.79006,66.9701087 L1223.2,0 L1376.1,66.9701087 L1529,0 L1529,26.2826087 L1376.1,93 L1223.2,25.7771739 L1070.79006,93 L916.419872,25.7771739 L764.5,93 Z" id="Combined-Shape"></path>
            </g>
            <g id="zig2" transform="translate(766.000000, 1637.157011) scale(1, -1) translate(-766.000000, -1637.157011) translate(1.229535, 1590.624526)" fill="#E8FA00">
                <path d="M765,93 L612.980769,25.7771739 L458.509615,93 L306,25.7771739 L153,93 L0,26.2826087 L0,0 L153,66.9701087 L306,0 L458.509615,66.9701087 L612,0 L765,66.4646739 L918,0 L1071.49038,66.9701087 L1224,0 L1377,66.9701087 L1530,0 L1530,26.2826087 L1377,93 L1224,25.7771739 L1071.49038,93 L917.019231,25.7771739 L765,93 Z" id="Combined-Shape"></path>
            </g>
            <g id="zig3" transform="translate(766.000000, 1587.347591) scale(1, -1) translate(-766.000000, -1587.347591) translate(1.229535, 1540.815106)" fill="#FF8A9D">
                <path d="M765,93 L612.980769,25.7771739 L458.509615,93 L306,25.7771739 L153,93 L0,26.2826087 L0,0 L153,66.9701087 L306,0 L458.509615,66.9701087 L612,0 L765,66.4646739 L918,0 L1071.49038,66.9701087 L1224,0 L1377,66.9701087 L1530,0 L1530,26.2826087 L1377,93 L1224,25.7771739 L1071.49038,93 L917.019231,25.7771739 L765,93 Z" id="Combined-Shape"></path>
            </g>
            <g id="zig1" transform="translate(766.000000, 1688.277206) scale(1, -1) translate(-766.000000, -1688.277206) translate(1.229535, 1641.744721)" fill="#FFFFFF">
                <path d="M765,93 L612.980769,25.7771739 L458.509615,93 L306,25.7771739 L153,93 L0,26.2826087 L0,0 L153,66.9701087 L306,0 L458.509615,66.9701087 L612,0 L765,66.4646739 L918,0 L1071.49038,66.9701087 L1224,0 L1377,66.9701087 L1530,0 L1530,26.2826087 L1377,93 L1224,25.7771739 L1071.49038,93 L917.019231,25.7771739 L765,93 Z" id="Combined-Shape"></path>
            </g>
            <g id="zig2" transform="translate(765.813792, 1713.122842) scale(1, -1) translate(-765.813792, -1713.122842) translate(1.229535, 1666.649432)" fill="#E8FA00">
                <path d="M764.5,93 L612.580128,25.7771739 L458.209936,93 L305.8,25.7771739 L152.9,93 L0,26.2826087 L0,0 L152.9,66.9701087 L305.8,0 L458.209936,66.9701087 L611.6,0 L764.5,66.4646739 L917.4,0 L1070.79006,66.9701087 L1223.2,0 L1376.1,66.9701087 L1529,0 L1529,26.2826087 L1376.1,93 L1223.2,25.7771739 L1070.79006,93 L916.419872,25.7771739 L764.5,93 Z" id="Combined-Shape"></path>
            </g>
            <g id="zig3" transform="translate(765.813792, 1662.658034) scale(1, -1) translate(-765.813792, -1662.658034) translate(1.229535, 1616.184624)" fill="#FF8A9D">
                <path d="M764.5,93 L612.580128,25.7771739 L458.209936,93 L305.8,25.7771739 L152.9,93 L0,26.2826087 L0,0 L152.9,66.9701087 L305.8,0 L458.209936,66.9701087 L611.6,0 L764.5,66.4646739 L917.4,0 L1070.79006,66.9701087 L1223.2,0 L1376.1,66.9701087 L1529,0 L1529,26.2826087 L1376.1,93 L1223.2,25.7771739 L1070.79006,93 L916.419872,25.7771739 L764.5,93 Z" id="Combined-Shape"></path>
            </g>
            <g id="zig1" transform="translate(764.584257, 1759.624129) scale(1, -1) translate(-764.584257, -1759.624129) translate(0.000000, 1713.181917)" fill="#FFFFFF">
                <path d="M764.5,93 L612.580128,25.7771739 L458.209936,93 L305.8,25.7771739 L152.9,93 L0,26.2826087 L0,0 L152.9,66.9701087 L305.8,0 L458.209936,66.9701087 L611.6,0 L764.5,66.4646739 L917.4,0 L1070.79006,66.9701087 L1223.2,0 L1376.1,66.9701087 L1529,0 L1529,26.2826087 L1376.1,93 L1223.2,25.7771739 L1070.79006,93 L916.419872,25.7771739 L764.5,93 Z" id="Combined-Shape"></path>
            </g>
            <g id="zig2" transform="translate(765.662904, 1784.619112) scale(1, -1) translate(-765.662904, -1784.619112) translate(1.229535, 1738.086627)" fill="#E8FA00">
                <path d="M764.5,93 L612.580128,25.7771739 L458.209936,93 L305.8,25.7771739 L152.9,93 L0,26.2826087 L0,0 L152.9,66.9701087 L305.8,0 L458.209936,66.9701087 L611.6,0 L764.5,66.4646739 L917.4,0 L1070.79006,66.9701087 L1223.2,0 L1376.1,66.9701087 L1529,0 L1529,26.2826087 L1376.1,93 L1223.2,25.7771739 L1070.79006,93 L916.419872,25.7771739 L764.5,93 Z" id="Combined-Shape"></path>
            </g>
            <g id="zig3" transform="translate(765.662904, 1734.154304) scale(1, -1) translate(-765.662904, -1734.154304) translate(1.229535, 1687.621819)" fill="#FF8A9D">
                <path d="M764.5,93 L612.580128,25.7771739 L458.209936,93 L305.8,25.7771739 L152.9,93 L0,26.2826087 L0,0 L152.9,66.9701087 L305.8,0 L458.209936,66.9701087 L611.6,0 L764.5,66.4646739 L917.4,0 L1070.79006,66.9701087 L1223.2,0 L1376.1,66.9701087 L1529,0 L1529,26.2826087 L1376.1,93 L1223.2,25.7771739 L1070.79006,93 L916.419872,25.7771739 L764.5,93 Z" id="Combined-Shape"></path>
            </g>
            <g id="zig1" transform="translate(765.662904, 1835.083920) scale(1, -1) translate(-765.662904, -1835.083920) translate(1.229535, 1788.551435)" fill="#FFFFFF">
                <path d="M764.5,93 L612.580128,25.7771739 L458.209936,93 L305.8,25.7771739 L152.9,93 L0,26.2826087 L0,0 L152.9,66.9701087 L305.8,0 L458.209936,66.9701087 L611.6,0 L764.5,66.4646739 L917.4,0 L1070.79006,66.9701087 L1223.2,0 L1376.1,66.9701087 L1529,0 L1529,26.2826087 L1376.1,93 L1223.2,25.7771739 L1070.79006,93 L916.419872,25.7771739 L764.5,93 Z" id="Combined-Shape"></path>
            </g>
            <g id="zig2" transform="translate(766.000000, 1859.988630) scale(1, -1) translate(-766.000000, -1859.988630) translate(1.229535, 1813.456145)" fill="#E8FA00">
                <path d="M765,93 L612.980769,25.7771739 L458.509615,93 L306,25.7771739 L153,93 L0,26.2826087 L0,0 L153,66.9701087 L306,0 L458.509615,66.9701087 L612,0 L765,66.4646739 L918,0 L1071.49038,66.9701087 L1224,0 L1377,66.9701087 L1530,0 L1530,26.2826087 L1377,93 L1224,25.7771739 L1071.49038,93 L917.019231,25.7771739 L765,93 Z" id="Combined-Shape"></path>
            </g>
            <g id="zig3" transform="translate(766.000000, 1809.523822) scale(1, -1) translate(-766.000000, -1809.523822) translate(1.229535, 1762.991337)" fill="#FF8A9D">
                <path d="M765,93 L612.980769,25.7771739 L458.509615,93 L306,25.7771739 L153,93 L0,26.2826087 L0,0 L153,66.9701087 L306,0 L458.509615,66.9701087 L612,0 L765,66.4646739 L918,0 L1071.49038,66.9701087 L1224,0 L1377,66.9701087 L1530,0 L1530,26.2826087 L1377,93 L1224,25.7771739 L1071.49038,93 L917.019231,25.7771739 L765,93 Z" id="Combined-Shape"></path>
            </g>
            <g id="zig1" transform="translate(766.000000, 1906.521115) scale(1, -1) translate(-766.000000, -1906.521115) translate(1.229535, 1859.988630)" fill="#FFFFFF">
                <path d="M765,93 L612.980769,25.7771739 L458.509615,93 L306,25.7771739 L153,93 L0,26.2826087 L0,0 L153,66.9701087 L306,0 L458.509615,66.9701087 L612,0 L765,66.4646739 L918,0 L1071.49038,66.9701087 L1224,0 L1377,66.9701087 L1530,0 L1530,26.2826087 L1377,93 L1224,25.7771739 L1071.49038,93 L917.019231,25.7771739 L765,93 Z" id="Combined-Shape"></path>
            </g>
            <g id="zig2" transform="translate(766.000000, 1932.081213) scale(1, -1) translate(-766.000000, -1932.081213) translate(1.229535, 1885.548728)" fill="#E8FA00">
                <path d="M765,93 L612.980769,25.7771739 L458.509615,93 L306,25.7771739 L153,93 L0,26.2826087 L0,0 L153,66.9701087 L306,0 L458.509615,66.9701087 L612,0 L765,66.4646739 L918,0 L1071.49038,66.9701087 L1224,0 L1377,66.9701087 L1530,0 L1530,26.2826087 L1377,93 L1224,25.7771739 L1071.49038,93 L917.019231,25.7771739 L765,93 Z" id="Combined-Shape"></path>
            </g>
            <g id="zig3" transform="translate(764.584257, 1881.526133) scale(1, -1) translate(-764.584257, -1881.526133) translate(0.000000, 1835.083920)" fill="#FF8A9D">
                <path d="M764.5,93 L612.580128,25.7771739 L458.209936,93 L305.8,25.7771739 L152.9,93 L0,26.2826087 L0,0 L152.9,66.9701087 L305.8,0 L458.209936,66.9701087 L611.6,0 L764.5,66.4646739 L917.4,0 L1070.79006,66.9701087 L1223.2,0 L1376.1,66.9701087 L1529,0 L1529,26.2826087 L1376.1,93 L1223.2,25.7771739 L1070.79006,93 L916.419872,25.7771739 L764.5,93 Z" id="Combined-Shape"></path>
            </g>
            <g id="zig1" transform="translate(765.662904, 1245.235517) scale(1, -1) translate(-765.662904, -1245.235517) translate(1.229535, 1198.703032)" fill="#FFFFFF">
                <path d="M764.5,93 L612.580128,25.7771739 L458.209936,93 L305.8,25.7771739 L152.9,93 L0,26.2826087 L0,0 L152.9,66.9701087 L305.8,0 L458.209936,66.9701087 L611.6,0 L764.5,66.4646739 L917.4,0 L1070.79006,66.9701087 L1223.2,0 L1376.1,66.9701087 L1529,0 L1529,26.2826087 L1376.1,93 L1223.2,25.7771739 L1070.79006,93 L916.419872,25.7771739 L764.5,93 Z" id="Combined-Shape"></path>
            </g>
            <g id="zig2" transform="translate(766.000000, 1270.795615) scale(1, -1) translate(-766.000000, -1270.795615) translate(1.229535, 1224.263129)" fill="#E8FA00">
                <path d="M765,93 L612.980769,25.7771739 L458.509615,93 L306,25.7771739 L153,93 L0,26.2826087 L0,0 L153,66.9701087 L306,0 L458.509615,66.9701087 L612,0 L765,66.4646739 L918,0 L1071.49038,66.9701087 L1224,0 L1377,66.9701087 L1530,0 L1530,26.2826087 L1377,93 L1224,25.7771739 L1071.49038,93 L917.019231,25.7771739 L765,93 Z" id="Combined-Shape"></path>
            </g>
            <g id="zig1" transform="translate(765.662904, 1317.983487) scale(1, -1) translate(-765.662904, -1317.983487) translate(1.229535, 1271.451002)" fill="#FFFFFF">
                <path d="M764.5,93 L612.580128,25.7771739 L458.209936,93 L305.8,25.7771739 L152.9,93 L0,26.2826087 L0,0 L152.9,66.9701087 L305.8,0 L458.209936,66.9701087 L611.6,0 L764.5,66.4646739 L917.4,0 L1070.79006,66.9701087 L1223.2,0 L1376.1,66.9701087 L1529,0 L1529,26.2826087 L1376.1,93 L1223.2,25.7771739 L1070.79006,93 L916.419872,25.7771739 L764.5,93 Z" id="Combined-Shape"></path>
            </g>
            <g id="zig2" transform="translate(766.000000, 1342.888197) scale(1, -1) translate(-766.000000, -1342.888197) translate(1.229535, 1296.355712)" fill="#E8FA00">
                <path d="M765,93 L612.980769,25.7771739 L458.509615,93 L306,25.7771739 L153,93 L0,26.2826087 L0,0 L153,66.9701087 L306,0 L458.509615,66.9701087 L612,0 L765,66.4646739 L918,0 L1071.49038,66.9701087 L1224,0 L1377,66.9701087 L1530,0 L1530,26.2826087 L1377,93 L1224,25.7771739 L1071.49038,93 L917.019231,25.7771739 L765,93 Z" id="Combined-Shape"></path>
            </g>
            <g id="zig3" transform="translate(766.000000, 1292.423389) scale(1, -1) translate(-766.000000, -1292.423389) translate(1.229535, 1245.890904)" fill="#FF8A9D">
                <path d="M765,93 L612.980769,25.7771739 L458.509615,93 L306,25.7771739 L153,93 L0,26.2826087 L0,0 L153,66.9701087 L306,0 L458.509615,66.9701087 L612,0 L765,66.4646739 L918,0 L1071.49038,66.9701087 L1224,0 L1377,66.9701087 L1530,0 L1530,26.2826087 L1377,93 L1224,25.7771739 L1071.49038,93 L917.019231,25.7771739 L765,93 Z" id="Combined-Shape"></path>
            </g>
            <g id="zig1" transform="translate(765.813792, 1393.949317) scale(1, -1) translate(-765.813792, -1393.949317) translate(1.229535, 1347.475907)" fill="#FFFFFF">
                <path d="M764.5,93 L612.580128,25.7771739 L458.209936,93 L305.8,25.7771739 L152.9,93 L0,26.2826087 L0,0 L152.9,66.9701087 L305.8,0 L458.209936,66.9701087 L611.6,0 L764.5,66.4646739 L917.4,0 L1070.79006,66.9701087 L1223.2,0 L1376.1,66.9701087 L1529,0 L1529,26.2826087 L1376.1,93 L1223.2,25.7771739 L1070.79006,93 L916.419872,25.7771739 L764.5,93 Z" id="Combined-Shape"></path>
            </g>
            <g id="zig2" transform="translate(766.000000, 1418.257715) scale(1, -1) translate(-766.000000, -1418.257715) translate(1.229535, 1371.725230)" fill="#E8FA00">
                <path d="M765,93 L612.980769,25.7771739 L458.509615,93 L306,25.7771739 L153,93 L0,26.2826087 L0,0 L153,66.9701087 L306,0 L458.509615,66.9701087 L612,0 L765,66.4646739 L918,0 L1071.49038,66.9701087 L1224,0 L1377,66.9701087 L1530,0 L1530,26.2826087 L1377,93 L1224,25.7771739 L1071.49038,93 L917.019231,25.7771739 L765,93 Z" id="Combined-Shape"></path>
            </g>
            <g id="zig3" transform="translate(765.662904, 1368.448295) scale(1, -1) translate(-765.662904, -1368.448295) translate(1.229535, 1321.915809)" fill="#FF8A9D">
                <path d="M764.5,93 L612.580128,25.7771739 L458.209936,93 L305.8,25.7771739 L152.9,93 L0,26.2826087 L0,0 L152.9,66.9701087 L305.8,0 L458.209936,66.9701087 L611.6,0 L764.5,66.4646739 L917.4,0 L1070.79006,66.9701087 L1223.2,0 L1376.1,66.9701087 L1529,0 L1529,26.2826087 L1376.1,93 L1223.2,25.7771739 L1070.79006,93 L916.419872,25.7771739 L764.5,93 Z" id="Combined-Shape"></path>
            </g>
            <g id="zig1" transform="translate(765.662904, 1465.445587) scale(1, -1) translate(-765.662904, -1465.445587) translate(1.229535, 1418.913102)" fill="#FFFFFF">
                <path d="M764.5,93 L612.580128,25.7771739 L458.209936,93 L305.8,25.7771739 L152.9,93 L0,26.2826087 L0,0 L152.9,66.9701087 L305.8,0 L458.209936,66.9701087 L611.6,0 L764.5,66.4646739 L917.4,0 L1070.79006,66.9701087 L1223.2,0 L1376.1,66.9701087 L1529,0 L1529,26.2826087 L1376.1,93 L1223.2,25.7771739 L1070.79006,93 L916.419872,25.7771739 L764.5,93 Z" id="Combined-Shape"></path>
            </g>
            <g id="zig2" transform="translate(766.000000, 1490.350298) scale(1, -1) translate(-766.000000, -1490.350298) translate(1.229535, 1443.817813)" fill="#E8FA00">
                <path d="M765,93 L612.980769,25.7771739 L458.509615,93 L306,25.7771739 L153,93 L0,26.2826087 L0,0 L153,66.9701087 L306,0 L458.509615,66.9701087 L612,0 L765,66.4646739 L918,0 L1071.49038,66.9701087 L1224,0 L1377,66.9701087 L1530,0 L1530,26.2826087 L1377,93 L1224,25.7771739 L1071.49038,93 L917.019231,25.7771739 L765,93 Z" id="Combined-Shape"></path>
            </g>
            <g id="zig3" transform="translate(766.000000, 1439.230103) scale(1, -1) translate(-766.000000, -1439.230103) translate(1.229535, 1392.697618)" fill="#FF8A9D">
                <path d="M765,93 L612.980769,25.7771739 L458.509615,93 L306,25.7771739 L153,93 L0,26.2826087 L0,0 L153,66.9701087 L306,0 L458.509615,66.9701087 L612,0 L765,66.4646739 L918,0 L1071.49038,66.9701087 L1224,0 L1377,66.9701087 L1530,0 L1530,26.2826087 L1377,93 L1224,25.7771739 L1071.49038,93 L917.019231,25.7771739 L765,93 Z" id="Combined-Shape"></path>
            </g>
            <g id="zig1" transform="translate(766.000000, 1540.159718) scale(1, -1) translate(-766.000000, -1540.159718) translate(1.229535, 1493.627233)" fill="#FFFFFF">
                <path d="M765,93 L612.980769,25.7771739 L458.509615,93 L306,25.7771739 L153,93 L0,26.2826087 L0,0 L153,66.9701087 L306,0 L458.509615,66.9701087 L612,0 L765,66.4646739 L918,0 L1071.49038,66.9701087 L1224,0 L1377,66.9701087 L1530,0 L1530,26.2826087 L1377,93 L1224,25.7771739 L1071.49038,93 L917.019231,25.7771739 L765,93 Z" id="Combined-Shape"></path>
            </g>
            <g id="zig2" transform="translate(766.000000, 1565.064429) scale(1, -1) translate(-766.000000, -1565.064429) translate(1.229535, 1518.531944)" fill="#E8FA00">
                <path d="M765,93 L612.980769,25.7771739 L458.509615,93 L306,25.7771739 L153,93 L0,26.2826087 L0,0 L153,66.9701087 L306,0 L458.509615,66.9701087 L612,0 L765,66.4646739 L918,0 L1071.49038,66.9701087 L1224,0 L1377,66.9701087 L1530,0 L1530,26.2826087 L1377,93 L1224,25.7771739 L1071.49038,93 L917.019231,25.7771739 L765,93 Z" id="Combined-Shape"></path>
            </g>
            <g id="zig3" transform="translate(765.813792, 1515.195934) scale(1, -1) translate(-765.813792, -1515.195934) translate(1.229535, 1468.722523)" fill="#FF8A9D">
                <path d="M764.5,93 L612.580128,25.7771739 L458.209936,93 L305.8,25.7771739 L152.9,93 L0,26.2826087 L0,0 L152.9,66.9701087 L305.8,0 L458.209936,66.9701087 L611.6,0 L764.5,66.4646739 L917.4,0 L1070.79006,66.9701087 L1223.2,0 L1376.1,66.9701087 L1529,0 L1529,26.2826087 L1376.1,93 L1223.2,25.7771739 L1070.79006,93 L916.419872,25.7771739 L764.5,93 Z" id="Combined-Shape"></path>
            </g>
            <g id="zig1" transform="translate(764.584257, 1612.162029) scale(1, -1) translate(-764.584257, -1612.162029) translate(0.000000, 1565.719816)" fill="#FFFFFF">
                <path d="M764.5,93 L612.580128,25.7771739 L458.209936,93 L305.8,25.7771739 L152.9,93 L0,26.2826087 L0,0 L152.9,66.9701087 L305.8,0 L458.209936,66.9701087 L611.6,0 L764.5,66.4646739 L917.4,0 L1070.79006,66.9701087 L1223.2,0 L1376.1,66.9701087 L1529,0 L1529,26.2826087 L1376.1,93 L1223.2,25.7771739 L1070.79006,93 L916.419872,25.7771739 L764.5,93 Z" id="Combined-Shape"></path>
            </g>
            <g id="zig2" transform="translate(766.000000, 1637.157011) scale(1, -1) translate(-766.000000, -1637.157011) translate(1.229535, 1590.624526)" fill="#E8FA00">
                <path d="M765,93 L612.980769,25.7771739 L458.509615,93 L306,25.7771739 L153,93 L0,26.2826087 L0,0 L153,66.9701087 L306,0 L458.509615,66.9701087 L612,0 L765,66.4646739 L918,0 L1071.49038,66.9701087 L1224,0 L1377,66.9701087 L1530,0 L1530,26.2826087 L1377,93 L1224,25.7771739 L1071.49038,93 L917.019231,25.7771739 L765,93 Z" id="Combined-Shape"></path>
            </g>
            <g id="zig3" transform="translate(766.000000, 1587.347591) scale(1, -1) translate(-766.000000, -1587.347591) translate(1.229535, 1540.815106)" fill="#FF8A9D">
                <path d="M765,93 L612.980769,25.7771739 L458.509615,93 L306,25.7771739 L153,93 L0,26.2826087 L0,0 L153,66.9701087 L306,0 L458.509615,66.9701087 L612,0 L765,66.4646739 L918,0 L1071.49038,66.9701087 L1224,0 L1377,66.9701087 L1530,0 L1530,26.2826087 L1377,93 L1224,25.7771739 L1071.49038,93 L917.019231,25.7771739 L765,93 Z" id="Combined-Shape"></path>
            </g>
            <g id="zig1" transform="translate(766.000000, 1688.277206) scale(1, -1) translate(-766.000000, -1688.277206) translate(1.229535, 1641.744721)" fill="#FFFFFF">
                <path d="M765,93 L612.980769,25.7771739 L458.509615,93 L306,25.7771739 L153,93 L0,26.2826087 L0,0 L153,66.9701087 L306,0 L458.509615,66.9701087 L612,0 L765,66.4646739 L918,0 L1071.49038,66.9701087 L1224,0 L1377,66.9701087 L1530,0 L1530,26.2826087 L1377,93 L1224,25.7771739 L1071.49038,93 L917.019231,25.7771739 L765,93 Z" id="Combined-Shape"></path>
            </g>
            <g id="zig2" transform="translate(765.813792, 1713.122842) scale(1, -1) translate(-765.813792, -1713.122842) translate(1.229535, 1666.649432)" fill="#E8FA00">
                <path d="M764.5,93 L612.580128,25.7771739 L458.209936,93 L305.8,25.7771739 L152.9,93 L0,26.2826087 L0,0 L152.9,66.9701087 L305.8,0 L458.209936,66.9701087 L611.6,0 L764.5,66.4646739 L917.4,0 L1070.79006,66.9701087 L1223.2,0 L1376.1,66.9701087 L1529,0 L1529,26.2826087 L1376.1,93 L1223.2,25.7771739 L1070.79006,93 L916.419872,25.7771739 L764.5,93 Z" id="Combined-Shape"></path>
            </g>
            <g id="zig3" transform="translate(765.813792, 1662.658034) scale(1, -1) translate(-765.813792, -1662.658034) translate(1.229535, 1616.184624)" fill="#FF8A9D">
                <path d="M764.5,93 L612.580128,25.7771739 L458.209936,93 L305.8,25.7771739 L152.9,93 L0,26.2826087 L0,0 L152.9,66.9701087 L305.8,0 L458.209936,66.9701087 L611.6,0 L764.5,66.4646739 L917.4,0 L1070.79006,66.9701087 L1223.2,0 L1376.1,66.9701087 L1529,0 L1529,26.2826087 L1376.1,93 L1223.2,25.7771739 L1070.79006,93 L916.419872,25.7771739 L764.5,93 Z" id="Combined-Shape"></path>
            </g>
            <g id="zig1" transform="translate(764.584257, 1759.624129) scale(1, -1) translate(-764.584257, -1759.624129) translate(0.000000, 1713.181917)" fill="#FFFFFF">
                <path d="M764.5,93 L612.580128,25.7771739 L458.209936,93 L305.8,25.7771739 L152.9,93 L0,26.2826087 L0,0 L152.9,66.9701087 L305.8,0 L458.209936,66.9701087 L611.6,0 L764.5,66.4646739 L917.4,0 L1070.79006,66.9701087 L1223.2,0 L1376.1,66.9701087 L1529,0 L1529,26.2826087 L1376.1,93 L1223.2,25.7771739 L1070.79006,93 L916.419872,25.7771739 L764.5,93 Z" id="Combined-Shape"></path>
            </g>
            <g id="zig2" transform="translate(765.662904, 1784.619112) scale(1, -1) translate(-765.662904, -1784.619112) translate(1.229535, 1738.086627)" fill="#E8FA00">
                <path d="M764.5,93 L612.580128,25.7771739 L458.209936,93 L305.8,25.7771739 L152.9,93 L0,26.2826087 L0,0 L152.9,66.9701087 L305.8,0 L458.209936,66.9701087 L611.6,0 L764.5,66.4646739 L917.4,0 L1070.79006,66.9701087 L1223.2,0 L1376.1,66.9701087 L1529,0 L1529,26.2826087 L1376.1,93 L1223.2,25.7771739 L1070.79006,93 L916.419872,25.7771739 L764.5,93 Z" id="Combined-Shape"></path>
            </g>
            <g id="zig3" transform="translate(765.662904, 1734.154304) scale(1, -1) translate(-765.662904, -1734.154304) translate(1.229535, 1687.621819)" fill="#FF8A9D">
                <path d="M764.5,93 L612.580128,25.7771739 L458.209936,93 L305.8,25.7771739 L152.9,93 L0,26.2826087 L0,0 L152.9,66.9701087 L305.8,0 L458.209936,66.9701087 L611.6,0 L764.5,66.4646739 L917.4,0 L1070.79006,66.9701087 L1223.2,0 L1376.1,66.9701087 L1529,0 L1529,26.2826087 L1376.1,93 L1223.2,25.7771739 L1070.79006,93 L916.419872,25.7771739 L764.5,93 Z" id="Combined-Shape"></path>
            </g>
            <g id="zig1" transform="translate(765.662904, 1835.083920) scale(1, -1) translate(-765.662904, -1835.083920) translate(1.229535, 1788.551435)" fill="#FFFFFF">
                <path d="M764.5,93 L612.580128,25.7771739 L458.209936,93 L305.8,25.7771739 L152.9,93 L0,26.2826087 L0,0 L152.9,66.9701087 L305.8,0 L458.209936,66.9701087 L611.6,0 L764.5,66.4646739 L917.4,0 L1070.79006,66.9701087 L1223.2,0 L1376.1,66.9701087 L1529,0 L1529,26.2826087 L1376.1,93 L1223.2,25.7771739 L1070.79006,93 L916.419872,25.7771739 L764.5,93 Z" id="Combined-Shape"></path>
            </g>
            <g id="zig2" transform="translate(766.000000, 1859.988630) scale(1, -1) translate(-766.000000, -1859.988630) translate(1.229535, 1813.456145)" fill="#E8FA00">
                <path d="M765,93 L612.980769,25.7771739 L458.509615,93 L306,25.7771739 L153,93 L0,26.2826087 L0,0 L153,66.9701087 L306,0 L458.509615,66.9701087 L612,0 L765,66.4646739 L918,0 L1071.49038,66.9701087 L1224,0 L1377,66.9701087 L1530,0 L1530,26.2826087 L1377,93 L1224,25.7771739 L1071.49038,93 L917.019231,25.7771739 L765,93 Z" id="Combined-Shape"></path>
            </g>
            <g id="zig3" transform="translate(766.000000, 1809.523822) scale(1, -1) translate(-766.000000, -1809.523822) translate(1.229535, 1762.991337)" fill="#FF8A9D">
                <path d="M765,93 L612.980769,25.7771739 L458.509615,93 L306,25.7771739 L153,93 L0,26.2826087 L0,0 L153,66.9701087 L306,0 L458.509615,66.9701087 L612,0 L765,66.4646739 L918,0 L1071.49038,66.9701087 L1224,0 L1377,66.9701087 L1530,0 L1530,26.2826087 L1377,93 L1224,25.7771739 L1071.49038,93 L917.019231,25.7771739 L765,93 Z" id="Combined-Shape"></path>
            </g>
            <g id="zig1" transform="translate(766.000000, 1906.521115) scale(1, -1) translate(-766.000000, -1906.521115) translate(1.229535, 1859.988630)" fill="#FFFFFF">
                <path d="M765,93 L612.980769,25.7771739 L458.509615,93 L306,25.7771739 L153,93 L0,26.2826087 L0,0 L153,66.9701087 L306,0 L458.509615,66.9701087 L612,0 L765,66.4646739 L918,0 L1071.49038,66.9701087 L1224,0 L1377,66.9701087 L1530,0 L1530,26.2826087 L1377,93 L1224,25.7771739 L1071.49038,93 L917.019231,25.7771739 L765,93 Z" id="Combined-Shape"></path>
            </g>
            <g id="zig2" transform="translate(766.000000, 1932.081213) scale(1, -1) translate(-766.000000, -1932.081213) translate(1.229535, 1885.548728)" fill="#E8FA00">
                <path d="M765,93 L612.980769,25.7771739 L458.509615,93 L306,25.7771739 L153,93 L0,26.2826087 L0,0 L153,66.9701087 L306,0 L458.509615,66.9701087 L612,0 L765,66.4646739 L918,0 L1071.49038,66.9701087 L1224,0 L1377,66.9701087 L1530,0 L1530,26.2826087 L1377,93 L1224,25.7771739 L1071.49038,93 L917.019231,25.7771739 L765,93 Z" id="Combined-Shape"></path>
            </g>
            <g id="zig3" transform="translate(764.584257, 1881.526133) scale(1, -1) translate(-764.584257, -1881.526133) translate(0.000000, 1835.083920)" fill="#FF8A9D">
                <path d="M764.5,93 L612.580128,25.7771739 L458.209936,93 L305.8,25.7771739 L152.9,93 L0,26.2826087 L0,0 L152.9,66.9701087 L305.8,0 L458.209936,66.9701087 L611.6,0 L764.5,66.4646739 L917.4,0 L1070.79006,66.9701087 L1223.2,0 L1376.1,66.9701087 L1529,0 L1529,26.2826087 L1376.1,93 L1223.2,25.7771739 L1070.79006,93 L916.419872,25.7771739 L764.5,93 Z" id="Combined-Shape"></path>
            </g>
            <g id="zig1" transform="translate(764.584257, 1982.455748) scale(1, -1) translate(-764.584257, -1982.455748) translate(0.000000, 1936.013535)" fill="#FFFFFF">
                <path d="M764.5,93 L612.580128,25.7771739 L458.209936,93 L305.8,25.7771739 L152.9,93 L0,26.2826087 L0,0 L152.9,66.9701087 L305.8,0 L458.209936,66.9701087 L611.6,0 L764.5,66.4646739 L917.4,0 L1070.79006,66.9701087 L1223.2,0 L1376.1,66.9701087 L1529,0 L1529,26.2826087 L1376.1,93 L1223.2,25.7771739 L1070.79006,93 L916.419872,25.7771739 L764.5,93 Z" id="Combined-Shape"></path>
            </g>
            <g id="zig2" transform="translate(766.000000, 2007.450731) scale(1, -1) translate(-766.000000, -2007.450731) translate(1.229535, 1960.918246)" fill="#E8FA00">
                <path d="M765,93 L612.980769,25.7771739 L458.509615,93 L306,25.7771739 L153,93 L0,26.2826087 L0,0 L153,66.9701087 L306,0 L458.509615,66.9701087 L612,0 L765,66.4646739 L918,0 L1071.49038,66.9701087 L1224,0 L1377,66.9701087 L1530,0 L1530,26.2826087 L1377,93 L1224,25.7771739 L1071.49038,93 L917.019231,25.7771739 L765,93 Z" id="Combined-Shape"></path>
            </g>
            <g id="zig1" transform="translate(766.000000, 2054.638603) scale(1, -1) translate(-766.000000, -2054.638603) translate(1.229535, 2008.106118)" fill="#FFFFFF">
                <path d="M765,93 L612.980769,25.7771739 L458.509615,93 L306,25.7771739 L153,93 L0,26.2826087 L0,0 L153,66.9701087 L306,0 L458.509615,66.9701087 L612,0 L765,66.4646739 L918,0 L1071.49038,66.9701087 L1224,0 L1377,66.9701087 L1530,0 L1530,26.2826087 L1377,93 L1224,25.7771739 L1071.49038,93 L917.019231,25.7771739 L765,93 Z" id="Combined-Shape"></path>
            </g>
            <g id="zig2" transform="translate(764.584257, 2078.797654) scale(1, -1) translate(-764.584257, -2078.797654) translate(0.000000, 2032.355441)" fill="#E8FA00">
                <path d="M764.5,93 L612.580128,25.7771739 L458.209936,93 L305.8,25.7771739 L152.9,93 L0,26.2826087 L0,0 L152.9,66.9701087 L305.8,0 L458.209936,66.9701087 L611.6,0 L764.5,66.4646739 L917.4,0 L1070.79006,66.9701087 L1223.2,0 L1376.1,66.9701087 L1529,0 L1529,26.2826087 L1376.1,93 L1223.2,25.7771739 L1070.79006,93 L916.419872,25.7771739 L764.5,93 Z" id="Combined-Shape"></path>
            </g>
            <g id="zig3" transform="translate(766.000000, 2029.733893) scale(1, -1) translate(-766.000000, -2029.733893) translate(1.229535, 1983.201408)" fill="#FF8A9D">
                <path d="M765,93 L612.980769,25.7771739 L458.509615,93 L306,25.7771739 L153,93 L0,26.2826087 L0,0 L153,66.9701087 L306,0 L458.509615,66.9701087 L612,0 L765,66.4646739 L918,0 L1071.49038,66.9701087 L1224,0 L1377,66.9701087 L1530,0 L1530,26.2826087 L1377,93 L1224,25.7771739 L1071.49038,93 L917.019231,25.7771739 L765,93 Z" id="Combined-Shape"></path>
            </g>
            <g id="zig1" transform="translate(765.662904, 2130.008121) scale(1, -1) translate(-765.662904, -2130.008121) translate(1.229535, 2083.475636)" fill="#FFFFFF">
                <path d="M764.5,93 L612.580128,25.7771739 L458.209936,93 L305.8,25.7771739 L152.9,93 L0,26.2826087 L0,0 L152.9,66.9701087 L305.8,0 L458.209936,66.9701087 L611.6,0 L764.5,66.4646739 L917.4,0 L1070.79006,66.9701087 L1223.2,0 L1376.1,66.9701087 L1529,0 L1529,26.2826087 L1376.1,93 L1223.2,25.7771739 L1070.79006,93 L916.419872,25.7771739 L764.5,93 Z" id="Combined-Shape"></path>
            </g>
            <g id="zig2" transform="translate(766.000000, 2155.568219) scale(1, -1) translate(-766.000000, -2155.568219) translate(1.229535, 2109.035734)" fill="#E8FA00">
                <path d="M765,93 L612.980769,25.7771739 L458.509615,93 L306,25.7771739 L153,93 L0,26.2826087 L0,0 L153,66.9701087 L306,0 L458.509615,66.9701087 L612,0 L765,66.4646739 L918,0 L1071.49038,66.9701087 L1224,0 L1377,66.9701087 L1530,0 L1530,26.2826087 L1377,93 L1224,25.7771739 L1071.49038,93 L917.019231,25.7771739 L765,93 Z" id="Combined-Shape"></path>
            </g>
            <g id="zig3" transform="translate(764.584257, 2104.357751) scale(1, -1) translate(-764.584257, -2104.357751) translate(0.000000, 2057.915539)" fill="#FF8A9D">
                <path d="M764.5,93 L612.580128,25.7771739 L458.209936,93 L305.8,25.7771739 L152.9,93 L0,26.2826087 L0,0 L152.9,66.9701087 L305.8,0 L458.209936,66.9701087 L611.6,0 L764.5,66.4646739 L917.4,0 L1070.79006,66.9701087 L1223.2,0 L1376.1,66.9701087 L1529,0 L1529,26.2826087 L1376.1,93 L1223.2,25.7771739 L1070.79006,93 L916.419872,25.7771739 L764.5,93 Z" id="Combined-Shape"></path>
            </g>
            <g id="zig1" transform="translate(764.584257, 2202.010431) scale(1, -1) translate(-764.584257, -2202.010431) translate(0.000000, 2155.568219)" fill="#FFFFFF">
                <path d="M764.5,93 L612.580128,25.7771739 L458.209936,93 L305.8,25.7771739 L152.9,93 L0,26.2826087 L0,0 L152.9,66.9701087 L305.8,0 L458.209936,66.9701087 L611.6,0 L764.5,66.4646739 L917.4,0 L1070.79006,66.9701087 L1223.2,0 L1376.1,66.9701087 L1529,0 L1529,26.2826087 L1376.1,93 L1223.2,25.7771739 L1070.79006,93 L916.419872,25.7771739 L764.5,93 Z" id="Combined-Shape"></path>
            </g>
            <g id="zig2" transform="translate(765.813792, 2227.601727) scale(1, -1) translate(-765.813792, -2227.601727) translate(1.229535, 2181.128316)" fill="#E8FA00">
                <path d="M764.5,93 L612.580128,25.7771739 L458.209936,93 L305.8,25.7771739 L152.9,93 L0,26.2826087 L0,0 L152.9,66.9701087 L305.8,0 L458.209936,66.9701087 L611.6,0 L764.5,66.4646739 L917.4,0 L1070.79006,66.9701087 L1223.2,0 L1376.1,66.9701087 L1529,0 L1529,26.2826087 L1376.1,93 L1223.2,25.7771739 L1070.79006,93 L916.419872,25.7771739 L764.5,93 Z" id="Combined-Shape"></path>
            </g>
            <g id="zig3" transform="translate(766.000000, 2176.540606) scale(1, -1) translate(-766.000000, -2176.540606) translate(1.229535, 2130.008121)" fill="#FF8A9D">
                <path d="M765,93 L612.980769,25.7771739 L458.509615,93 L306,25.7771739 L153,93 L0,26.2826087 L0,0 L153,66.9701087 L306,0 L458.509615,66.9701087 L612,0 L765,66.4646739 L918,0 L1071.49038,66.9701087 L1224,0 L1377,66.9701087 L1530,0 L1530,26.2826087 L1377,93 L1224,25.7771739 L1071.49038,93 L917.019231,25.7771739 L765,93 Z" id="Combined-Shape"></path>
            </g>
            <g id="zig1" transform="translate(764.584257, 2277.379950) scale(1, -1) translate(-764.584257, -2277.379950) translate(0.000000, 2230.937737)" fill="#FFFFFF">
                <path d="M764.5,93 L612.580128,25.7771739 L458.209936,93 L305.8,25.7771739 L152.9,93 L0,26.2826087 L0,0 L152.9,66.9701087 L305.8,0 L458.209936,66.9701087 L611.6,0 L764.5,66.4646739 L917.4,0 L1070.79006,66.9701087 L1223.2,0 L1376.1,66.9701087 L1529,0 L1529,26.2826087 L1376.1,93 L1223.2,25.7771739 L1070.79006,93 L916.419872,25.7771739 L764.5,93 Z" id="Combined-Shape"></path>
            </g>
            <g id="zig2" transform="translate(766.000000, 2301.719545) scale(1, -1) translate(-766.000000, -2301.719545) translate(1.229535, 2255.187060)" fill="#E8FA00">
                <path d="M765,93 L612.980769,25.7771739 L458.509615,93 L306,25.7771739 L153,93 L0,26.2826087 L0,0 L153,66.9701087 L306,0 L458.509615,66.9701087 L612,0 L765,66.4646739 L918,0 L1071.49038,66.9701087 L1224,0 L1377,66.9701087 L1530,0 L1530,26.2826087 L1377,93 L1224,25.7771739 L1071.49038,93 L917.019231,25.7771739 L765,93 Z" id="Combined-Shape"></path>
            </g>
            <g id="zig3" transform="translate(766.000000, 2251.910125) scale(1, -1) translate(-766.000000, -2251.910125) translate(1.229535, 2205.377639)" fill="#FF8A9D">
                <path d="M765,93 L612.980769,25.7771739 L458.509615,93 L306,25.7771739 L153,93 L0,26.2826087 L0,0 L153,66.9701087 L306,0 L458.509615,66.9701087 L612,0 L765,66.4646739 L918,0 L1071.49038,66.9701087 L1224,0 L1377,66.9701087 L1530,0 L1530,26.2826087 L1377,93 L1224,25.7771739 L1071.49038,93 L917.019231,25.7771739 L765,93 Z" id="Combined-Shape"></path>
            </g>
            <g id="zig3" transform="translate(766.000000, 1220.986194) scale(1, -1) translate(-766.000000, -1220.986194) translate(1.229535, 1174.453709)" fill="#FF8A9D">
                <path d="M765,93 L612.980769,25.7771739 L458.509615,93 L306,25.7771739 L153,93 L0,26.2826087 L0,0 L153,66.9701087 L306,0 L458.509615,66.9701087 L612,0 L765,66.4646739 L918,0 L1071.49038,66.9701087 L1224,0 L1377,66.9701087 L1530,0 L1530,26.2826087 L1377,93 L1224,25.7771739 L1071.49038,93 L917.019231,25.7771739 L765,93 Z" id="Combined-Shape"></path>
            </g>
            <g id="zig1" transform="translate(766.000000, 2348.907417) scale(1, -1) translate(-766.000000, -2348.907417) translate(1.229535, 2302.374932)" fill="#FFFFFF">
                <path d="M765,93 L612.980769,25.7771739 L458.509615,93 L306,25.7771739 L153,93 L0,26.2826087 L0,0 L153,66.9701087 L306,0 L458.509615,66.9701087 L612,0 L765,66.4646739 L918,0 L1071.49038,66.9701087 L1224,0 L1377,66.9701087 L1530,0 L1530,26.2826087 L1377,93 L1224,25.7771739 L1071.49038,93 L917.019231,25.7771739 L765,93 Z" id="Combined-Shape"></path>
            </g>
            <g id="zig2" transform="translate(765.813792, 2374.408440) scale(1, -1) translate(-765.813792, -2374.408440) translate(1.229535, 2327.935030)" fill="#E8FA00">
                <path d="M764.5,93 L612.580128,25.7771739 L458.209936,93 L305.8,25.7771739 L152.9,93 L0,26.2826087 L0,0 L152.9,66.9701087 L305.8,0 L458.209936,66.9701087 L611.6,0 L764.5,66.4646739 L917.4,0 L1070.79006,66.9701087 L1223.2,0 L1376.1,66.9701087 L1529,0 L1529,26.2826087 L1376.1,93 L1223.2,25.7771739 L1070.79006,93 L916.419872,25.7771739 L764.5,93 Z" id="Combined-Shape"></path>
            </g>
            <g id="zig3" transform="translate(765.662904, 2323.347320) scale(1, -1) translate(-765.662904, -2323.347320) translate(1.229535, 2276.814835)" fill="#FF8A9D">
                <path d="M764.5,93 L612.580128,25.7771739 L458.209936,93 L305.8,25.7771739 L152.9,93 L0,26.2826087 L0,0 L152.9,66.9701087 L305.8,0 L458.209936,66.9701087 L611.6,0 L764.5,66.4646739 L917.4,0 L1070.79006,66.9701087 L1223.2,0 L1376.1,66.9701087 L1529,0 L1529,26.2826087 L1376.1,93 L1223.2,25.7771739 L1070.79006,93 L916.419872,25.7771739 L764.5,93 Z" id="Combined-Shape"></path>
            </g>
        </g>
    </g>
</svg>